<svg xmlns="http://www.w3.org/2000/svg" viewBox="0 0 1024 1024"><path fill="#0256FF" d="M563.85 769.22c-5.18-21.79-5.18-44.5 0-66.29l-40.52-23.4 40.84-70.74 40.52 23.4a142.768 142.768 0 0 1 57.39-33.16v-46.77h81.69v46.77c21.73 6.45 41.33 17.97 57.39 33.16l40.52-23.4 40.84 70.74-40.52 23.4a143.43 143.43 0 0 1 0 66.25l40.52 23.4-40.84 70.74-40.52-23.4a142.905 142.905 0 0 1-57.39 33.17v46.77h-81.69v-46.77a142.807 142.807 0 0 1-57.39-33.17l-40.52 23.4-40.84-70.74 40.52-23.36zm139.07 28.1c33.84 0 61.27-27.43 61.27-61.27s-27.43-61.27-61.27-61.27-61.27 27.43-61.27 61.27 27.43 61.27 61.27 61.27z"/><path fill="#4E5969" d="M438.87 659.42c-56.77 0-105.64 24.24-146.6 72.73-42.77 50.63-64.16 112.18-64.16 184.62h-42.78v-42.78h253.54v85.56H185.32c-2.81 0-5.59-.27-8.35-.82-2.76-.55-5.43-1.36-8.03-2.43-2.6-1.08-5.06-2.39-7.4-3.95-2.34-1.56-4.5-3.33-6.48-5.32a42.853 42.853 0 0 1-5.32-6.48c-1.56-2.34-2.88-4.8-3.95-7.4-1.07-2.6-1.89-5.27-2.43-8.03-.55-2.75-.82-5.54-.82-8.35 0-93.32 28.12-173.26 84.36-239.84 58.05-68.72 128.71-103.08 211.96-103.08v85.57zm0 0v-85.56h42.78v85.56h-42.78zm0 300.14V874h42.78v85.56h-42.78zM762.4 299.52c0 129.95-105.35 235.3-235.3 235.3s-235.3-105.35-235.3-235.3 105.35-235.3 235.3-235.3 235.3 105.35 235.3 235.3zm-85.56 0c0-41.35-14.62-76.64-43.86-105.88-29.24-29.24-64.53-43.86-105.88-43.86s-76.64 14.62-105.88 43.86c-29.24 29.24-43.86 64.53-43.86 105.88s14.62 76.64 43.86 105.88c29.24 29.24 64.53 43.86 105.88 43.86s76.64-14.62 105.88-43.86c29.24-29.24 43.86-64.53 43.86-105.88z"/></svg>