<svg xmlns="http://www.w3.org/2000/svg" viewBox="0 0 1024 1024"><path fill="#B8BCC2" d="M800.87 929.22h92.99c-64.12-146.75-210.54-249.3-380.92-249.3-170.38 0-316.81 102.55-380.92 249.3H225c14.42-25.05 32.06-48 52.9-68.84 32.45-32.45 70.01-57.13 112.69-74.02 39.3-15.56 80.09-23.34 122.35-23.34 42.27 0 83.05 7.78 122.35 23.34 42.67 16.89 80.23 41.57 112.69 74.02 20.84 20.84 38.47 43.78 52.89 68.84z"/><path fill="#B8BCC2" d="M845.33 430.62c0-183.58-148.82-332.4-332.4-332.4-183.58 0-332.4 148.82-332.4 332.4 0 183.58 148.82 332.4 332.4 332.4 183.58 0 332.4-148.82 332.4-332.4zm-83.1 0c0 68.84-24.34 127.6-73.02 176.28-48.68 48.68-107.44 73.02-176.28 73.02s-127.6-24.34-176.28-73.02c-48.68-48.68-73.02-107.44-73.02-176.28s24.34-127.6 73.02-176.28 107.44-73.02 176.28-73.02 127.6 24.34 176.28 73.02c48.68 48.68 73.02 107.44 73.02 176.28z"/><path fill="#0062FF" d="M388.29 513.72c0 68.84 55.81 124.65 124.65 124.65s124.65-55.81 124.65-124.65h-62.32c0 17.21-6.08 31.9-18.25 44.07-12.17 12.17-26.86 18.25-44.07 18.25s-31.9-6.08-44.07-18.25c-12.17-12.17-18.25-26.86-18.25-44.07h-62.34z"/></svg>