<svg xmlns="http://www.w3.org/2000/svg" class="icon" viewBox="0 0 1144 1024"><path fill="#333" d="M691.148 875.01c5.995-6.674 8.992-14.02 8.992-22.018s-2.997-14.996-8.992-20.99L379.15 512.004l311.998-319.997c5.995-5.994 8.992-12.991 8.992-20.99s-2.997-14.995-8.992-20.99c-5.995-5.995-12.991-8.992-20.99-8.992s-14.996 2.666-20.99 7.999L318.156 490.02c-5.994 5.995-8.992 13.332-8.992 22.02 0 8.678 2.998 16.024 8.992 22.018l331.012 340.988c5.994 5.332 12.991 7.999 20.99 7.999s14.995-2.667 20.99-8v-.035z"/></svg>