<svg xmlns="http://www.w3.org/2000/svg" class="icon" viewBox="0 0 1144 1024"><path fill="#333" d="M349.132 148.998c-5.995 6.675-8.992 14.02-8.992 22.02s2.997 14.995 8.992 20.99L661.13 512.003 349.132 832.002c-5.995 5.994-8.992 12.991-8.992 20.99 0 7.999 2.997 14.995 8.992 20.99 5.994 5.995 12.991 8.992 20.99 8.992s14.995-2.666 20.99-7.999l331.011-340.987c5.995-5.995 8.992-13.332 8.992-22.02 0-8.678-2.997-16.024-8.992-22.018L391.121 148.962c-5.995-5.332-12.991-7.999-20.99-7.999s-14.996 2.667-20.99 8v.035h-.01z"/></svg>