<svg xmlns="http://www.w3.org/2000/svg" class="icon" viewBox="0 0 1024 1024"><path fill="#4E5969" d="M247.05 112.66c-64.06 0-116.87 50.23-120.07 114.22L98.93 787.9C95.5 856.56 150.25 914.12 219 914.12h588.77c68.75 0 123.5-57.56 120.07-126.22l-28.05-561.02c-3.2-63.98-56.01-114.22-120.07-114.22H247.05zm0 80.15h532.67c10.68 0 19.88 3.68 27.62 11.04 7.74 7.36 11.87 16.37 12.4 27.03L847.8 791.9c.57 11.44-3.09 21.31-10.99 29.62-7.9 8.3-17.57 12.45-29.03 12.45H219c-11.46 0-21.14-4.15-29.03-12.45-7.9-8.3-11.56-18.18-10.99-29.62l28.05-561.02c.53-10.66 4.67-19.67 12.4-27.03 7.74-7.37 16.95-11.04 27.62-11.04z"/><path fill="#0062FF" d="M683.4 583.22c46.95-46.95 70.42-103.62 70.42-170.02h-80.15c0 44.26-15.65 82.04-46.95 113.34-31.3 31.3-69.08 46.95-113.34 46.95s-82.04-15.65-113.34-46.95c-31.3-31.3-46.95-69.08-46.95-113.34h-80.15c0 66.4 23.47 123.07 70.42 170.02s103.62 70.42 170.02 70.42 123.08-23.47 170.02-70.42z"/></svg>