<svg xmlns="http://www.w3.org/2000/svg" viewBox="0 0 1024 1024"><path fill="#4E5969" d="M391.47 93.82c0-13.47-10.92-24.4-24.39-24.4h-48.79c-13.47 0-24.39 10.92-24.39 24.4l-.03 48.79H147.51c-26.95 0-48.79 23.06-48.79 51.5v677.67c0 28.44 21.84 51.5 48.79 51.5H879.4c26.95 0 48.79-23.06 48.79-51.5V194.12c0-28.44-21.84-51.5-48.79-51.5H733.01v-48.8c0-13.47-10.92-24.4-24.4-24.4h-48.79c-13.48 0-24.4 10.92-24.4 24.4v48.79H391.47V93.82zM293.86 240.2l.02 48.79c0 13.47 10.92 24.4 24.4 24.4h48.79c13.48 0 24.4-10.92 24.4-24.4V240.2h243.96v48.79c0 13.47 10.92 24.4 24.4 24.4h48.79c13.47 0 24.4-10.92 24.4-24.4V240.2h97.59v170.77h-634.3V240.2h97.55zM830.6 508.56V825.7H196.3V508.56h634.3z"/></svg>