<svg xmlns="http://www.w3.org/2000/svg" class="icon" style="width:1em;height:1em;vertical-align:middle;fill:currentColor;overflow:hidden" viewBox="0 0 1024 1024"><path fill="#4E5969" d="m466.06 512.99-90.88-89.89c-5.99-6.67-8.98-14.33-8.98-22.98s3.16-16.14 9.49-22.46c6.33-6.33 13.82-9.49 22.46-9.49 8.65 0 16.31 2.99 22.98 8.98l89.89 90.88 89.89-90.88c9.33-8.65 19.81-11.31 31.44-7.99 11.63 3.32 19.12 10.81 22.46 22.46s.68 22.13-7.99 31.44l-90.88 89.89 90.88 89.89c8.65 9.33 11.31 19.81 7.99 31.44S644 653.4 632.35 656.74s-22.13.68-31.44-7.99l-89.89-90.88-89.89 90.88c-6.67 5.99-14.33 8.98-22.98 8.98s-16.14-3.16-22.46-9.49c-6.33-6.33-9.49-13.82-9.49-22.46 0-8.65 2.99-16.31 8.98-22.98l90.88-89.81zm44.93 383.45c108.52-2.67 198.89-40.12 271.11-112.35s109.67-162.61 112.35-271.11c-2.67-108.52-40.12-198.89-112.35-271.11S619.48 132.21 510.99 129.53c-108.52 2.66-198.89 40.11-271.11 112.35S130.21 404.49 127.53 512.99c2.66 108.52 40.11 198.89 112.35 271.11s162.61 109.66 271.11 112.34zm0 63.91c-126.5-3.32-231.85-47.09-316.07-131.3-84.21-84.21-127.98-189.57-131.3-316.07 3.32-126.5 47.09-231.85 131.3-316.07 84.21-84.21 189.57-127.98 316.07-131.3 126.5 3.32 231.85 47.09 316.07 131.3 84.21 84.21 127.98 189.57 131.3 316.07-3.32 126.5-47.09 231.85-131.3 316.07s-189.58 127.98-316.07 131.3z"/></svg>