<svg xmlns="http://www.w3.org/2000/svg" viewBox="0 0 1024 1024"><path fill="#4E5969" d="M510.96 65.48c-88.15 0-174.32 26.14-247.61 75.11A445.732 445.732 0 0 0 99.2 340.61a445.67 445.67 0 0 0-25.36 257.5 445.725 445.725 0 0 0 121.97 228.2 445.695 445.695 0 0 0 485.71 96.62 445.785 445.785 0 0 0 200.02-164.15 445.695 445.695 0 0 0-55.43-562.76C742.53 112.43 629.17 65.48 510.96 65.48zm0 827.7c-75.55 0-149.42-22.41-212.24-64.38a382.037 382.037 0 0 1-140.7-171.44 382.021 382.021 0 0 1 278.41-520.87 382.054 382.054 0 0 1 220.72 21.74 381.932 381.932 0 0 1 171.44 140.7 381.981 381.981 0 0 1 64.38 212.24c0 101.32-40.25 198.48-111.89 270.12-71.63 71.65-168.8 111.89-270.12 111.89zm-63.67-209.66L288.12 524.31l44.98-44.98 114.19 114.16 241.47-241.5 45.05 45.05-286.52 286.48z"/></svg>