<svg xmlns="http://www.w3.org/2000/svg" class="icon" viewBox="0 0 1024 1024"><path fill="#4E5969" d="M511.03 960.22c246.9 0 447.06-200.15 447.06-447.06 0-246.9-200.15-447.06-447.06-447.06-246.9 0-447.06 200.15-447.06 447.06.01 246.91 200.16 447.06 447.06 447.06zm248.38-695.43C828 333.38 862.29 416.17 862.29 513.17S828 692.96 759.41 761.55 608.03 864.43 511.03 864.43s-179.79-34.29-248.38-102.88-102.88-151.38-102.88-248.38 34.29-179.79 102.88-248.38 151.38-102.88 248.38-102.88 179.79 34.29 248.38 102.88zM511.04 561.07c-5.01 0-9.84-.77-14.38-2.2-19.43-6.11-33.52-24.26-33.52-45.7l.01-.69-.01-222.84c0-26.45 21.44-47.9 47.9-47.9 26.45 0 47.9 21.45 47.9 47.9v175.63h175.63c26.45 0 47.9 21.44 47.9 47.9 0 26.45-21.45 47.89-47.89 47.9H511.04z"/></svg>