<svg xmlns="http://www.w3.org/2000/svg" class="icon" viewBox="0 0 1024 1024"><path fill="#4E5969" d="M872.67 301.25c5.99 7.99 9.23 17.7 9.23 27.68v553.69c0 25.48-20.66 46.14-46.14 46.14H189.78c-25.48 0-46.14-20.66-46.14-46.14V144.37c0-25.48 20.66-46.14 46.14-46.14h507.55c14.53 0 28.2 6.84 36.91 18.46l138.43 184.56zm-83.06 73.82h-92.28c-25.48 0-46.14-20.66-46.14-46.14V190.51H235.92v645.97h553.69V375.07z"/><path fill="#0256FF" d="M345.51 401.15c16.94 25.47 35.81 57.32 42.06 78.22l49.87-26.92c-7.81-21.27-28.12-51.79-45.78-74.26l-46.15 22.96zm185.64-26.44c-.36 22.71-.36 44.34-1.08 64.16h-79.43v52.03h74.98c-7.69 57.44-28.36 99.25-86.03 128.45 12.62 10.57 28.12 31.6 34.73 46.02 44.7-23.79 71.62-55.75 87.48-95.05 31 32.32 60.92 68.61 76.42 94.69l45.42-36.29c-22.47-33.52-65.37-78.94-105.98-112.83l3.36-24.99h96.01v-52.03h-91.56c1.08-20.55 1.44-41.82 1.8-64.53l-56.12.37zM433.7 508.45h-93.72v51.67h39.53v84.23c-15.14 7.45-31.84 19.83-46.62 36.41l37.01 53.47c9.97-18.87 24.75-45.06 34.61-45.06 8.53 0 21.87 11.05 39.89 19.95 28.12 14.06 59.84 18.5 107.42 18.5 39.53 0 97.09-2.28 122.92-4.09.84-15.5 9.61-43.26 15.86-58.88-37.97 6.97-100.69 10.81-136.5 10.81-40.97 0-76.78-2.28-102.62-16.7-7.09-3.48-12.62-6.97-17.78-10.09V508.45z"/></svg>