<svg xmlns="http://www.w3.org/2000/svg" class="icon" viewBox="0 0 1024 1024"><path fill="#333" d="M894.734 875.001c5.994-6.673 8.996-14.017 8.996-22.022s-3.002-14.999-8.996-20.993L582.71 511.967l312.024-320.02c5.994-5.993 8.996-12.988 8.996-20.992 0-8.005-3.002-15-8.996-20.993-5.994-5.994-12.988-8.996-20.993-8.996s-14.999 2.671-20.993 8.005L521.713 489.983c-5.994 5.994-8.996 13.338-8.996 22.022s3.002 16.018 8.996 22.022l331.026 341.012c5.994 5.333 12.988 8.004 20.993 8.004s14.999-2.67 20.993-8.004V875h.009z"/><path fill="#333" d="M503.731 875.001c5.994-6.673 8.996-14.017 8.996-22.022 0-8.004-3.002-14.999-8.996-20.993L191.707 511.967l312.024-320.02c5.994-5.993 8.996-12.988 8.996-20.992 0-8.005-3.002-15-8.996-20.993-5.994-5.994-12.988-8.996-20.993-8.996s-14.999 2.671-20.993 8.005L130.71 489.983c-5.994 5.994-8.995 13.338-8.995 22.022s3.001 16.018 8.995 22.022l331.026 341.012c5.994 5.333 12.988 8.004 20.993 8.004s14.999-2.67 20.993-8.004V875h.01z"/></svg>