<svg xmlns="http://www.w3.org/2000/svg" class="icon" viewBox="0 0 1024 1024"><path fill="#333" d="M130.71 149.008c-5.994 6.674-8.995 14.018-8.995 22.022 0 8.005 3.001 15 8.995 20.993l312.025 320.02L130.71 832.061c-5.994 5.994-8.995 12.988-8.995 20.993 0 8.004 3.001 14.999 8.995 20.993 5.994 5.994 12.989 8.995 20.993 8.995s15-2.67 20.993-8.004l331.026-341.012c5.994-5.994 8.995-13.338 8.995-22.022s-3.001-16.019-8.995-22.022L172.696 148.97c-5.994-5.334-12.988-8.005-20.993-8.005s-14.999 2.671-20.993 8.005v.037zm391.003-.01c-5.994 6.674-8.996 14.018-8.996 22.023s3.002 14.999 8.996 20.993l312.024 320.019-312.024 320.029c-5.994 5.994-8.996 12.988-8.996 20.993 0 8.004 3.002 14.999 8.996 20.993 5.994 5.994 12.988 8.995 20.993 8.995 8.004 0 14.999-2.67 20.993-8.004l331.026-341.012c5.993-5.994 8.995-13.338 8.995-22.022s-3.002-16.019-8.995-22.022L563.699 148.97c-5.994-5.334-12.989-8.005-20.993-8.005-8.005 0-15 2.671-20.993 8.005v.028z"/></svg>