<svg xmlns="http://www.w3.org/2000/svg" class="icon" viewBox="0 0 1024 1024"><path fill="#4E5969" d="M226.62 316.55c39.43-57.43 91.29-99.16 155.58-125.19l-37.08-91.57c-82.65 33.47-149.3 87.09-199.94 160.84C93.29 336.21 67.34 420 67.34 511.99c0 60.28 11.65 117.96 34.96 173.06 22.5 53.19 54.25 100.29 95.25 141.3 41 41 88.1 72.75 141.3 95.25 55.1 23.31 112.78 34.96 173.06 34.96 92 0 175.78-25.95 251.36-77.84 73.76-50.64 127.37-117.29 160.84-199.94l-91.57-37.08c-26.04 64.29-67.77 116.15-125.19 155.58-58.74 40.33-123.88 60.49-195.45 60.49-95.48 0-176.98-33.76-244.5-101.27-67.52-67.52-101.27-149.02-101.27-244.5 0-71.57 20.17-136.72 60.49-195.45z"/><path fill="#4E5969" d="M511.91 67.43c-27.28 0-49.4 22.12-49.4 49.4V512c0 27.28 22.12 49.4 49.4 49.4h395.17c27.28 0 49.4-22.12 49.4-49.4 0-60.28-11.65-117.96-34.96-173.06-22.5-53.19-54.25-100.29-95.25-141.3-41-41-88.1-72.76-141.3-95.25-55.1-23.31-112.79-34.96-173.06-34.96zm49.39 101.96c74.5 9.84 139.54 42.54 195.1 98.1 55.56 55.56 88.26 120.6 98.1 195.1H561.3v-293.2z"/></svg>