<svg xmlns="http://www.w3.org/2000/svg" viewBox="0 0 1024 1024"><path fill="#4E5969" d="M382.33 191.1c-64.3 26.04-116.17 67.78-155.6 125.21-40.33 58.74-60.5 123.9-60.5 195.48 0 95.5 33.76 177.01 101.29 244.54s149.04 101.29 244.54 101.29c71.57 0 136.73-20.17 195.48-60.5 57.43-39.43 99.17-91.3 125.21-155.6l91.59 37.09c-33.48 82.67-87.1 149.32-160.87 199.97-75.59 51.9-159.39 77.85-251.4 77.85-60.29 0-117.98-11.65-173.09-34.96-53.2-22.5-100.31-54.26-141.32-95.27-41.01-41.01-72.77-88.12-95.27-141.32-23.31-55.11-34.96-112.8-34.96-173.09 0-92.01 25.95-175.81 77.85-251.41 50.65-73.77 117.31-127.39 199.97-160.87l37.08 91.59z"/><path fill="#0062FF" d="M512.06 462.38h395.23v49.4h-49.4c0-95.5-33.76-177.01-101.29-244.54S607.56 165.95 512.06 165.95v-49.4h49.4v395.23h-49.4v-49.4zm0 98.81a49.542 49.542 0 0 1-18.91-3.76c-3-1.24-5.84-2.76-8.54-4.57a49.55 49.55 0 0 1-7.49-6.14 49.06 49.06 0 0 1-6.14-7.49c-1.8-2.7-3.32-5.54-4.57-8.54a49.466 49.466 0 0 1-3.76-18.91V116.55a49.542 49.542 0 0 1 3.76-18.91c1.24-3 2.76-5.84 4.57-8.54 1.8-2.7 3.85-5.19 6.14-7.49a49.06 49.06 0 0 1 7.49-6.14c2.7-1.8 5.54-3.32 8.54-4.57a49.466 49.466 0 0 1 18.91-3.76c60.29 0 117.98 11.65 173.09 34.96 53.2 22.5 100.31 54.26 141.32 95.27 41.01 41.01 72.77 88.12 95.27 141.32 23.31 55.11 34.96 112.8 34.96 173.09a49.542 49.542 0 0 1-3.76 18.91c-1.24 3-2.76 5.84-4.57 8.54a49.55 49.55 0 0 1-6.14 7.49 49.06 49.06 0 0 1-7.49 6.14c-2.7 1.8-5.54 3.32-8.54 4.57a49.466 49.466 0 0 1-18.91 3.76H512.06z"/></svg>