<svg xmlns="http://www.w3.org/2000/svg" class="icon" viewBox="0 0 1024 1024"><path fill="#4E5969" d="M637.84 98.23c22.87 0 41.42 18.54 41.42 41.42l-.02 41.39 221.96.02c9.23 0 12.58.96 15.95 2.77 3.38 1.81 6.03 4.45 7.83 7.83 1.81 3.37 2.77 6.72 2.77 15.95v29.74c0 9.23-.96 12.58-2.77 15.95-1.8 3.37-4.45 6.02-7.83 7.83-3.38 1.81-6.72 2.77-15.95 2.77l-56.3-.02.02 621.25c0 22.88-18.54 41.42-41.42 41.42H223.69c-22.87 0-41.42-18.54-41.42-41.42l-.02-621.25-56.26.02c-9.23 0-12.58-.96-15.95-2.77s-6.02-4.45-7.83-7.83c-1.8-3.37-2.77-6.72-2.77-15.95V207.6c0-9.23.96-12.58 2.77-15.95 1.8-3.37 4.45-6.02 7.83-7.83 3.37-1.81 6.72-2.77 15.95-2.77l221.92-.02.02-41.39c0-22.87 18.54-41.42 41.42-41.42h248.49v.01zm124.23 165.64H265.09l.02 579.83h496.98l-.02-579.83zM451.48 388.13c11.44 0 20.71 9.27 20.71 20.71v289.91c0 11.44-9.27 20.71-20.71 20.71h-41.42c-11.44 0-20.71-9.27-20.71-20.71V408.84c0-11.44 9.27-20.71 20.71-20.71h41.42zm165.66 0c11.44 0 20.71 9.27 20.71 20.71v289.91c0 11.44-9.27 20.71-20.71 20.71h-41.42c-11.44 0-20.71-9.27-20.71-20.71V408.84c0-11.44 9.27-20.71 20.71-20.71h41.42z"/></svg>