<svg xmlns="http://www.w3.org/2000/svg" class="icon" viewBox="0 0 1024 1024"><path fill="#4E5969" d="M623.02 98.15c-30.56 0-55.34 24.78-55.34 55.34v55.34c0 30.56 24.78 55.34 55.34 55.34h55.34c30.56 0 55.34-24.78 55.34-55.34v-55.34c0-30.56-24.78-55.34-55.34-55.34h-55.34zm-276.7.02c-30.56 0-55.34 24.78-55.34 55.34v55.34c0 30.56 24.78 55.34 55.34 55.34h55.34c30.56 0 55.34-24.78 55.34-55.34V153.5c0-30.56-24.78-55.34-55.34-55.34h-55.34zm276.7 221.35c-30.56 0-55.34 24.78-55.34 55.34v55.34c0 30.56 24.78 55.34 55.34 55.34h55.34c30.56 0 55.34-24.78 55.34-55.34v-55.34c0-30.56-24.78-55.34-55.34-55.34h-55.34zm-276.7.02c-30.56 0-55.34 24.78-55.34 55.34v55.34c0 30.56 24.78 55.34 55.34 55.34h55.34c30.56 0 55.34-24.78 55.34-55.34v-55.34c0-30.56-24.78-55.34-55.34-55.34h-55.34zm276.7 221.35c-30.56 0-55.34 24.78-55.34 55.34v55.34c0 30.56 24.78 55.34 55.34 55.34h55.34c30.56 0 55.34-24.78 55.34-55.34v-55.34c0-30.56-24.78-55.34-55.34-55.34h-55.34zm-276.7.02c-30.56 0-55.34 24.78-55.34 55.34v55.34c0 30.56 24.78 55.34 55.34 55.34h55.34c30.56 0 55.34-24.78 55.34-55.34v-55.34c0-30.56-24.78-55.34-55.34-55.34h-55.34zm276.7 221.35c-30.56 0-55.34 24.78-55.34 55.34v55.34c0 30.56 24.78 55.34 55.34 55.34h55.34c30.56 0 55.34-24.78 55.34-55.34V817.6c0-30.56-24.78-55.34-55.34-55.34h-55.34zm-276.7.02c-30.56 0-55.34 24.78-55.34 55.34v55.34c0 30.56 24.78 55.34 55.34 55.34h55.34c30.56 0 55.34-24.78 55.34-55.34v-55.34c0-30.56-24.78-55.34-55.34-55.34h-55.34z"/></svg>