<svg xmlns="http://www.w3.org/2000/svg" class="icon" viewBox="0 0 1024 1024"><path fill="#4E5969" d="M891.45 829.52c10.96 0 19.84 8.88 19.84 19.84v58.8c0 10.95-8.88 19.84-19.84 19.84H137.51c-10.96 0-19.84-8.89-19.84-19.84v-58.8c0-10.96 8.88-19.84 19.84-19.84h753.94zm-285.8-721.99 2.6 2.39 146.47 147.19c15.43 15.51 15.39 40.58-.07 56.04l-14.67 14.65-426.55 427.09H162.08c-24.75-.59-47.27-19.23-49.77-46.93l-.11-2.96V553.66l412.25-415.45-.37-.37 27.98-27.98c14.68-14.69 38-15.46 53.59-2.33zM470.17 320.82 201.02 595.3l71.63 71.75 271.79-271.96-74.27-74.27zm118.31-118.3-56.58 57.75 73.8 73.8 56.91-56.97-74.13-74.58z"/></svg>