<svg xmlns="http://www.w3.org/2000/svg" viewBox="0 0 1024 1024"><path fill="#FF5733" d="M511.56 64.32c247.21 0 447.62 200.41 447.62 447.62S758.77 959.56 511.56 959.56 63.94 759.15 63.94 511.94 264.34 64.32 511.56 64.32z"/><path fill="#FFF" d="m634.68 327.59 31.65 31.65c9.99 9.99 9.99 26.18 0 36.17L564.57 497.17l101.77 101.76c9.99 9.99 9.99 26.18 0 36.17l-31.65 31.65c-9.99 9.99-26.18 9.99-36.17 0l-101.79-101.8-101.69 101.77c-9.99 9.99-26.18 9.99-36.17 0l-31.65-31.65c-9.99-9.99-9.99-26.18 0-36.17l101.66-101.72-101.67-101.72c-9.99-9.99-9.99-26.18 0-36.17l31.65-31.65c9.99-9.99 26.18-9.99 36.17 0l101.69 101.69L598.51 327.6c9.99-10 26.18-10 36.17-.01z"/></svg>