<svg xmlns="http://www.w3.org/2000/svg" viewBox="0 0 1024 1024"><path fill="#FEF0F0" d="M511.15 67.47c246.35 0 446.06 199.71 446.06 446.06S757.5 959.59 511.15 959.59 65.09 759.88 65.09 513.53 264.79 67.47 511.15 67.47z"/><path fill="#FF5733" d="m649.03 345.12 31.54 31.54c9.95 9.95 9.95 26.09 0 36.05L579.16 514.1l101.41 101.41c9.95 9.95 9.95 26.09 0 36.05l-31.54 31.54c-9.95 9.95-26.09 9.95-36.05 0L511.55 581.65 410.22 683.06c-9.95 9.95-26.09 9.95-36.05 0l-31.54-31.54c-9.95-9.95-9.95-26.09 0-36.05L443.94 514.1 342.63 412.75c-9.95-9.95-9.95-26.09 0-36.05l31.54-31.54c9.95-9.95 26.09-9.95 36.05 0L511.55 446.5l101.43-101.37c9.96-9.96 26.1-9.96 36.05-.01z"/></svg>