<svg xmlns="http://www.w3.org/2000/svg" class="icon" viewBox="0 0 1024 1024"><path fill="#333" d="m183.75 207 721.93 572.7c7.38 5.86 7.38 15.36 0 21.21l-26.74 21.21c-7.38 5.86-19.35 5.86-26.73 0l-721.93-572.7c-7.38-5.86-7.38-15.35 0-21.21L157.01 207c7.39-5.86 19.36-5.86 26.74 0zm329.57 49.38c163.27 0 302.12 85.01 416.56 255.03-36.22 52.36-74.46 96.65-114.73 132.87l-49.44-39.23c30.15-26.08 59.66-57.37 88.54-94.09-102.38-133.11-215.49-194.59-340.89-194.59-32.68 0-64.5 4.18-95.5 12.71l-57.12-45.3c48.2-18.27 99.06-27.4 152.58-27.4zM211.35 377.3l49.43 39.22c-29.92 26.11-58.96 57.51-87.15 94.42 104.39 133.62 217.35 195.37 339.74 195.37 32.59 0 64.55-4.38 95.87-13.32l56.86 45.09c-48.57 18.82-99.49 28.23-152.77 28.23-160.12 0-298.56-84.98-415.33-254.92 35.38-52.94 73.16-97.63 113.35-134.09zM665.2 511.38c0-66.27-67.72-119.99-151.25-119.99-5.63 0-11.19.24-16.66.72l167 132.48c.61-4.34.91-8.74.91-13.21zM530.6 630.63l-167-132.48c-.6 4.34-.91 8.75-.91 13.22 0 66.27 67.72 119.99 151.25 119.99 5.63-.01 11.19-.26 16.66-.73z"/></svg>