<svg xmlns="http://www.w3.org/2000/svg" viewBox="0 0 1024 1024"><path fill="#4E5969" d="M910.25 479.75C799.01 329.27 666.29 254.03 512.11 254.03c-156.04 0-289.72 77.06-401.03 231.17a489.17 489.17 0 0 0-3.45 4.84l-6.46 9.28c-6.41 9.29-6.33 20.57.2 29.81l2.07 2.91c2.66 3.73 4.92 6.87 6.79 9.41l5.46 7.34C228.75 699.2 360.9 774.4 512.11 774.4c154.19 0 288.93-78.19 404.22-234.58L924 529.2c6.6-9.27 6.67-20.62.2-29.95l-7.14-10.17-6.81-9.33zm-52.43 34.11C751.25 650.18 636.29 713.23 512.14 713.23c-124.11 0-238.66-63.02-344.51-199.36C270.74 378.01 385.02 315.3 512.14 315.3c127.16 0 241.85 62.74 345.68 198.56zM512.73 391.8c-84.71 0-153.38 54.82-153.38 122.44s68.67 122.44 153.38 122.44 153.38-54.82 153.38-122.44S597.44 391.8 512.73 391.8zm76.67 122.44c0-33.81-34.33-61.22-76.69-61.22s-76.69 27.41-76.69 61.22 34.33 61.22 76.69 61.22 76.69-27.41 76.69-61.22z"/></svg>