<svg xmlns="http://www.w3.org/2000/svg" class="icon" viewBox="0 0 1024 1024"><path fill="#4E5969" d="M882.93 131.09c24.75 0 44.81 20.06 44.81 44.81l.05 188.32c.3 2.97.28 5.95-.03 8.88l-.01 4.44c0 7.56-3.74 14.24-9.47 18.3a43.133 43.133 0 0 1-11.33 9.78L658.88 553.67v316.79c0 12.37-10.03 22.4-22.4 22.4h-44.81c-12.37 0-22.4-10.03-22.4-22.4V534.38c0-6.79 1.51-13.22 4.21-18.98 3.42-8.25 9.44-15.49 17.68-20.41l246.97-147.45V220.71H188.37v128.43l239.6 143.21c17.08 6.32 29.26 22.76 29.26 42.04v246.46c0 12.37-10.03 22.41-22.4 22.41h-44.81c-12.37 0-22.4-10.03-22.4-22.41v-225.6L119.98 407.19c-5.56-3.32-10.1-7.7-13.52-12.73a22.354 22.354 0 0 1-7.71-16.92V175.9c0-24.75 20.06-44.81 44.81-44.81h739.37z"/></svg>