<svg xmlns="http://www.w3.org/2000/svg" viewBox="0 0 1024 1024"><path fill="#4E5969" d="M911.33 512.9V911c0 3.27-.32 6.5-.96 9.71-.64 3.2-1.58 6.32-2.83 9.34a48.99 48.99 0 0 1-4.6 8.6 49.773 49.773 0 0 1-6.19 7.54 49.773 49.773 0 0 1-7.54 6.19 50.4 50.4 0 0 1-8.6 4.6 49.813 49.813 0 0 1-9.34 2.83c-3.2.64-6.44.96-9.71.96H164.88c-3.27 0-6.5-.32-9.71-.96-3.2-.64-6.32-1.58-9.34-2.83a48.99 48.99 0 0 1-8.6-4.6 49.773 49.773 0 0 1-7.54-6.19 49.773 49.773 0 0 1-10.79-16.14 49.813 49.813 0 0 1-2.83-9.34c-.64-3.2-.96-6.44-.96-9.71V114.8c0-3.27.32-6.5.96-9.71.64-3.2 1.58-6.32 2.83-9.34a48.99 48.99 0 0 1 4.6-8.6c1.82-2.72 3.88-5.23 6.19-7.54a49.773 49.773 0 0 1 16.14-10.79c3.02-1.25 6.13-2.19 9.34-2.83 3.2-.64 6.44-.96 9.71-.96h478.97v99.53H164.88V114.8h49.76V911h-49.76v-49.76h696.68V911H811.8V512.9h99.53z"/><path fill="#0062FF" d="M901.37 194.42 682.42 486.36c-1.91 2.55-4.05 4.9-6.42 7.04a49.797 49.797 0 0 1-25.43 12.24c-3.15.51-6.31.72-9.5.62a49.597 49.597 0 0 1-18.49-4.18 49.047 49.047 0 0 1-8.31-4.65L461 391.25l28.33-40.91 38.39 31.67-175.16 212.33L275.79 531l175.17-212.32a50.36 50.36 0 0 1 6.51-6.55 49.6 49.6 0 0 1 7.61-5.23c2.7-1.51 5.51-2.75 8.45-3.74a49.55 49.55 0 0 1 8.99-2.11c3.06-.42 6.14-.56 9.23-.41 3.09.15 6.14.58 9.14 1.3 3.01.72 5.92 1.71 8.75 2.97 2.82 1.26 5.51 2.77 8.05 4.53L670.94 415.6l-28.33 40.91-39.81-29.86 218.96-291.94 79.61 59.71z"/><path fill="#4E5969" d="M314.17 761.72h99.53v49.76h-99.53zm149.29-49.76h99.53v99.53h-99.53zm149.29-49.77h99.53v149.29h-99.53z"/></svg>