<svg xmlns="http://www.w3.org/2000/svg" viewBox="0 0 1024 1024"><path fill="#4E5969" d="M855.31 575.51 568.39 864.58c-14.6 15.48-34.56 24.2-55.39 24.2s-40.79-8.72-55.39-24.2L170.56 575.24C124.14 527.52 98 456.91 98 388.97c0-67.94 26.14-138.41 72.56-186.13 93.89-96.28 244.58-87.81 342.44 4.08 97.86-91.89 248.42-100.36 342.31-4.08C901.81 250.57 928 321.1 928 389.11c0 68-26.19 138.67-72.69 186.4zm-54.02-319.99-.02-.02c-30.87-31.64-68.77-46.89-113.7-45.75-46.15 1.17-87.12 18.57-122.91 52.18L513 310.42l-51.65-48.5c-35.79-33.61-76.79-51-122.98-52.18-44.99-1.14-82.92 14.11-113.79 45.77-15.71 16.15-28.14 36.11-37.28 59.89-9.23 23.99-13.84 48.51-13.84 73.56 0 25.07 4.62 49.62 13.85 73.66 9.15 23.82 21.6 43.82 37.34 60L511.86 812.1l.65.7c.32.34.49.51.49.51s.17-.17.5-.52l.66-.7 287.59-289.75c15.44-15.85 27.74-35.7 36.91-59.53 9.25-24.05 13.88-48.63 13.88-73.72 0-25.07-4.62-49.62-13.86-73.62-9.16-23.77-21.62-43.76-37.39-59.95z"/><path fill="#0062FF" d="M524.64 536.59 658.12 408.8l52.18 54.5-133.48 127.79-52.18-54.5z"/></svg>