<svg xmlns="http://www.w3.org/2000/svg" viewBox="0 0 1024 1024"><path fill="#4E5969" d="M798.97 355.03 660.89 170.92l36.82-27.62v46.03H191.42V143.3h46.03v736.43h-46.03V833.7h644.37v46.03h-46.03V327.41h46.03l-36.82 27.62zm73.64-55.23c2.99 3.98 5.27 8.34 6.84 13.06 1.57 4.72 2.36 9.58 2.36 14.55v552.32a45.873 45.873 0 0 1-3.5 17.61 46.436 46.436 0 0 1-4.25 7.96 45.595 45.595 0 0 1-5.73 6.97 46.692 46.692 0 0 1-6.97 5.73c-2.51 1.68-5.17 3.1-7.96 4.25a45.873 45.873 0 0 1-17.61 3.5H191.42a45.873 45.873 0 0 1-17.61-3.5 46.436 46.436 0 0 1-7.96-4.25 45.595 45.595 0 0 1-6.97-5.73 46.018 46.018 0 0 1-5.72-6.97c-1.68-2.51-3.1-5.17-4.25-7.96a45.873 45.873 0 0 1-3.5-17.61V143.31a45.873 45.873 0 0 1 3.5-17.61c1.16-2.79 2.57-5.44 4.25-7.96 1.68-2.51 3.59-4.84 5.72-6.97s4.46-4.04 6.97-5.72c2.51-1.68 5.17-3.1 7.96-4.25a45.873 45.873 0 0 1 17.61-3.5h506.29a45.998 45.998 0 0 1 20.59 4.86c3.2 1.6 6.17 3.54 8.91 5.83a45.8 45.8 0 0 1 7.33 7.72L872.61 299.8z"/><path fill="#0062FF" d="M379.18 358c-8.53 17.05-1.61 37.79 15.44 46.31 17.05 8.53 37.79 1.61 46.31-15.44 5.14-10.29 12.32-19.53 22.43-26.27 9.9-6.6 24.65-12.18 47.37-12.18 17.67 0 35.28 5.42 47.61 14.67 11.41 8.56 18.55 20.31 18.55 37.11 0 21.16-9.23 35.97-26.14 52.28-6.77 6.52-13.76 12.37-21.66 18.97l-.05.04c-2.69 2.25-5.49 4.59-8.41 7.07-10.7 9.07-22.97 19.95-33.04 32.86-8.3 10.65-11.38 22.97-11.38 33.84v67.82c0 19.06 17.26 34.52 34.52 34.52s34.52-15.46 34.52-34.52v-63.06c5.06-5.71 11.63-11.68 20.03-18.8 2.1-1.78 4.38-3.69 6.76-5.67 8.3-6.94 17.93-14.98 26.64-23.38 23.66-22.82 47.26-54.41 47.26-101.97 0-40.74-19.22-72.13-46.17-92.34-26.02-19.52-58.76-28.48-89.03-28.48-34.81 0-63.21 8.8-85.67 23.78-22.25 14.84-36.65 34.37-45.89 52.84zm85.53 360.64c0 25.42 20.61 46.03 46.03 46.03s46.03-20.61 46.03-46.03-20.61-46.03-46.03-46.03c-25.43 0-46.03 20.61-46.03 46.03z"/><path fill="#4E5969" d="M835.79 373.44H697.71a45.873 45.873 0 0 1-17.61-3.5 46.436 46.436 0 0 1-7.96-4.25A46.018 46.018 0 0 1 659.45 353c-1.68-2.51-3.1-5.17-4.25-7.96a45.873 45.873 0 0 1-3.5-17.61V143.31h92.05v184.11h-46.03v-46.03H835.8v92.05z"/></svg>