<svg xmlns="http://www.w3.org/2000/svg" viewBox="0 0 1024 1024"><path fill="#4E5969" d="M511.96 67.04c-32.33 0-60.52 11.29-84.58 33.87L149.52 361.68c-28.07 26.34-42.1 59.26-42.1 98.75v343.52c0 41.75 13.93 77.52 41.78 107.29 28.57 30.54 63.26 45.81 104.06 45.81h517.41c40.8 0 75.49-15.27 104.06-45.81 27.85-29.77 41.78-65.53 41.78-107.29V460.43c0-39.49-14.03-72.4-42.1-98.75L596.54 100.9c-24.05-22.58-52.24-33.86-84.58-33.86zM204.89 420.68 482.75 159.9c8.49-7.97 18.23-11.95 29.21-11.95s20.72 3.98 29.21 11.95l277.86 260.78c11.04 10.36 16.56 23.61 16.56 39.75v343.52c0 20.45-6.65 37.79-19.95 52.01-12.59 13.45-27.58 20.17-44.98 20.17h-517.4c-17.4 0-32.4-6.72-44.98-20.17-13.3-14.22-19.95-31.55-19.95-52.01V460.43c0-16.14 5.52-29.39 16.56-39.75z"/><path fill="#0062FF" d="M553.31 876.28H472.4V663.74c0-16.76 18.11-30.34 40.45-30.34 22.34 0 40.45 13.58 40.45 30.34v212.54z"/></svg>