<svg xmlns="http://www.w3.org/2000/svg" viewBox="0 0 1024 1024"><path fill="#4E5969" d="M254.46 411.54V841.8h-43.03v-43.03h172.1v86.05h-172.1c-2.83 0-5.62-.28-8.39-.83a42.93 42.93 0 0 1-8.07-2.45 42.886 42.886 0 0 1-7.44-3.98 43.473 43.473 0 0 1-6.52-5.35c-2-2-3.78-4.17-5.35-6.52a43.575 43.575 0 0 1-3.98-7.44 43.007 43.007 0 0 1-3.28-16.46V411.54h86.06zm516.31 0V841.8h43.03v-43.03H641.7v86.05h172.1c2.83 0 5.62-.28 8.39-.83a42.93 42.93 0 0 0 8.07-2.45c2.61-1.08 5.09-2.41 7.44-3.98 2.35-1.57 4.52-3.36 6.52-5.35 2-2 3.78-4.17 5.35-6.52 1.57-2.35 2.89-4.83 3.98-7.44a43.007 43.007 0 0 0 3.28-16.46V411.54h-86.06z"/><path fill="#4E5969" d="M873.43 488.53 486.2 187.35l26.42-33.96 26.42 33.96L151.8 488.53l-52.83-67.92L486.2 119.43a43.134 43.134 0 0 1 12.45-6.73c2.25-.77 4.54-1.35 6.89-1.74 2.34-.39 4.7-.59 7.08-.59s4.73.2 7.08.59c2.34.39 4.64.97 6.89 1.74s4.42 1.72 6.5 2.85c2.09 1.13 4.07 2.42 5.95 3.88l387.23 301.18-52.84 67.92z"/><path fill="#0062FF" d="M469.59 540.62h86.05v258.15h-86.05z"/></svg>