<svg xmlns="http://www.w3.org/2000/svg" class="icon" viewBox="0 0 1024 1024"><path fill="#4E5969" d="M144.4 271.73c5.27 0 10.48-.51 15.64-1.54a80.525 80.525 0 0 0 15.04-4.56c4.86-2.01 9.49-4.48 13.86-7.41a80.184 80.184 0 0 0 29.53-35.98c2.01-4.86 3.54-9.88 4.56-15.04a79.75 79.75 0 0 0 1.54-15.64c0-5.27-.51-10.48-1.54-15.64a80.525 80.525 0 0 0-4.56-15.04 79.186 79.186 0 0 0-7.41-13.86 80.184 80.184 0 0 0-35.98-29.53 79.783 79.783 0 0 0-15.04-4.56 79.75 79.75 0 0 0-15.64-1.54c-5.27 0-10.48.51-15.64 1.54a80.525 80.525 0 0 0-15.04 4.56 79.186 79.186 0 0 0-13.86 7.41 80.184 80.184 0 0 0-29.53 35.98c-2.01 4.86-3.54 9.88-4.56 15.04s-1.54 10.38-1.54 15.64c0 5.27.51 10.48 1.54 15.64a80.525 80.525 0 0 0 4.56 15.04c2.01 4.86 4.48 9.49 7.41 13.86a80.184 80.184 0 0 0 35.98 29.53c4.86 2.01 9.88 3.54 15.04 4.56a80.443 80.443 0 0 0 15.64 1.54zm173.43-120.28c0-22.14 17.95-40.09 40.09-40.09h561.31c22.15 0 40.09 17.95 40.09 40.09v80.19c0 22.14-17.95 40.09-40.09 40.09h-561.3c-22.14 0-40.09-17.95-40.09-40.09v-80.19zM144.4 592.48c5.27 0 10.48-.51 15.64-1.54a80.525 80.525 0 0 0 15.04-4.56c4.86-2.01 9.49-4.48 13.86-7.41a80.184 80.184 0 0 0 29.53-35.98c2.01-4.86 3.54-9.88 4.56-15.04a79.75 79.75 0 0 0 1.54-15.64c0-5.27-.51-10.48-1.54-15.64a80.525 80.525 0 0 0-4.56-15.04 79.186 79.186 0 0 0-7.41-13.86 80.184 80.184 0 0 0-35.98-29.53 79.783 79.783 0 0 0-15.04-4.56 79.75 79.75 0 0 0-15.64-1.54c-5.27 0-10.48.51-15.64 1.54a80.525 80.525 0 0 0-15.04 4.56 79.186 79.186 0 0 0-13.86 7.41 80.184 80.184 0 0 0-22.12 22.12c-2.92 4.38-5.4 9-7.41 13.86a79.783 79.783 0 0 0-4.56 15.04 79.75 79.75 0 0 0-1.54 15.64c0 5.27.51 10.48 1.54 15.64a80.525 80.525 0 0 0 4.56 15.04c2.01 4.86 4.48 9.49 7.41 13.86a80.184 80.184 0 0 0 35.98 29.53c4.86 2.01 9.88 3.54 15.04 4.56a79.674 79.674 0 0 0 15.64 1.54zM357.93 432.1c-22.14 0-40.09 17.95-40.09 40.09v80.19c0 22.14 17.95 40.09 40.09 40.09h561.31c22.15 0 40.09-17.95 40.09-40.09V472.2c0-22.14-17.95-40.09-40.09-40.09H357.93zM144.4 913.23c5.27 0 10.48-.51 15.64-1.54a80.525 80.525 0 0 0 15.04-4.56c4.86-2.01 9.49-4.48 13.86-7.41a80.184 80.184 0 0 0 29.53-35.98c2.01-4.86 3.54-9.88 4.56-15.04 1.03-5.16 1.54-10.38 1.54-15.64s-.51-10.48-1.54-15.64a80.525 80.525 0 0 0-4.56-15.04 79.186 79.186 0 0 0-7.41-13.86 80.184 80.184 0 0 0-35.98-29.53 79.783 79.783 0 0 0-15.04-4.56 79.75 79.75 0 0 0-15.64-1.54c-5.27 0-10.48.51-15.64 1.54a80.525 80.525 0 0 0-15.04 4.56 79.186 79.186 0 0 0-13.86 7.41 80.184 80.184 0 0 0-29.53 35.98 79.783 79.783 0 0 0-4.56 15.04c-1.03 5.16-1.54 10.38-1.54 15.64s.51 10.48 1.54 15.64 2.55 10.18 4.56 15.04c2.01 4.86 4.48 9.49 7.41 13.86a80.184 80.184 0 0 0 35.98 29.53c4.86 2.01 9.88 3.54 15.04 4.56a79.674 79.674 0 0 0 15.64 1.54zm173.43-120.28c0-22.14 17.95-40.09 40.09-40.09h561.31c22.15 0 40.09 17.95 40.09 40.09v80.19c0 22.14-17.95 40.09-40.09 40.09h-561.3c-22.14 0-40.09-17.95-40.09-40.09v-80.19z"/></svg>