<svg xmlns="http://www.w3.org/2000/svg" viewBox="0 0 1024 1024"><path fill="#333" d="M957.48 512.11C957.48 758.37 757.85 958 511.59 958 265.34 958 65.71 758.37 65.71 512.11S265.34 66.22 511.6 66.22c246.25 0 445.88 199.63 445.88 445.89zm-44.59 0c0-51.03-9.39-100.27-28.18-147.72-20.39-51.52-50.18-96.87-89.36-136.05-39.18-39.18-84.53-68.97-136.05-89.36-47.45-18.78-96.69-28.18-147.72-28.18s-100.27 9.39-147.72 28.18c-51.52 20.4-96.87 50.18-136.05 89.36s-68.97 84.53-89.36 136.05c-18.78 47.45-28.18 96.69-28.18 147.72s9.39 100.27 28.18 147.72c20.4 51.52 50.18 96.86 89.36 136.05 39.18 39.18 84.53 68.97 136.05 89.36 47.45 18.78 96.69 28.18 147.72 28.18s100.27-9.39 147.72-28.18c51.52-20.39 96.86-50.18 136.05-89.36 39.18-39.18 68.97-84.53 89.36-136.05 18.79-47.45 28.18-96.69 28.18-147.72z"/><path fill="#333" d="M489.3 199.99c36.94 0 66.88 29.94 66.88 66.88s-29.95 66.88-66.88 66.88-66.88-29.94-66.88-66.88 29.94-66.88 66.88-66.88zm-66.88 178.36h89.18c24.63 0 44.59 19.96 44.59 44.59v312.12c0 24.63-19.96 44.59-44.59 44.59s-44.59-19.96-44.59-44.59V467.52h-44.59c-24.63 0-44.59-19.96-44.59-44.59 0-24.62 19.96-44.58 44.59-44.58z"/><path fill="#333" d="M422.42 690.47h178.36c24.63 0 44.59 19.96 44.59 44.59 0 24.63-19.96 44.59-44.59 44.59H422.42c-24.63 0-44.59-19.96-44.59-44.59 0-24.63 19.96-44.59 44.59-44.59z"/></svg>