<svg xmlns="http://www.w3.org/2000/svg" class="icon" viewBox="0 0 1024 1024"><path fill="#4E5969" d="M118.13 231.52c3.69 0 7.34-.36 10.95-1.08 3.62-.72 7.13-1.78 10.53-3.2 3.41-1.41 6.64-3.14 9.71-5.19 3.07-2.05 5.9-4.38 8.51-6.98 2.61-2.61 4.93-5.44 6.98-8.51a56.339 56.339 0 0 0 8.39-20.24 55.999 55.999 0 0 0 0-21.9c-.72-3.62-1.78-7.13-3.2-10.53a55.892 55.892 0 0 0-5.19-9.71c-2.05-3.07-4.38-5.9-6.98-8.51a55.855 55.855 0 0 0-8.51-6.98 56.339 56.339 0 0 0-20.24-8.39c-3.61-.72-7.27-1.08-10.95-1.08-3.69 0-7.34.36-10.95 1.08-3.62.72-7.13 1.78-10.53 3.2a55.892 55.892 0 0 0-9.71 5.19c-3.07 2.05-5.9 4.38-8.51 6.98s-4.93 5.44-6.98 8.51a56.339 56.339 0 0 0-8.39 20.24 55.999 55.999 0 0 0 0 21.9c.72 3.62 1.78 7.13 3.2 10.53 1.41 3.41 3.14 6.64 5.19 9.71 2.05 3.07 4.38 5.9 6.98 8.51 2.61 2.61 5.44 4.93 8.51 6.98a56.339 56.339 0 0 0 20.24 8.39c3.61.72 7.26 1.08 10.95 1.08zm168.44-112.29c-31.01 0-56.15 25.14-56.15 56.15 0 31.01 25.14 56.15 56.15 56.15h617.62c31.01 0 56.15-25.14 56.15-56.15 0-31.01-25.14-56.15-56.15-56.15H286.57zM118.13 568.4c3.69 0 7.34-.36 10.95-1.08a55.86 55.86 0 0 0 10.53-3.19c3.41-1.41 6.64-3.14 9.71-5.19 3.07-2.05 5.9-4.38 8.51-6.98 2.61-2.61 4.93-5.44 6.98-8.51s3.78-6.3 5.19-9.71a55.999 55.999 0 0 0 3.2-32.43c-.72-3.62-1.78-7.13-3.2-10.53a55.892 55.892 0 0 0-5.19-9.71c-2.05-3.07-4.38-5.9-6.98-8.51a55.855 55.855 0 0 0-8.51-6.98 56.339 56.339 0 0 0-20.24-8.39 55.999 55.999 0 0 0-21.9 0c-3.62.72-7.13 1.78-10.53 3.2a55.892 55.892 0 0 0-9.71 5.19c-3.07 2.05-5.9 4.38-8.51 6.98a55.855 55.855 0 0 0-6.98 8.51 56.339 56.339 0 0 0-8.39 20.24 55.999 55.999 0 0 0 0 21.9c.72 3.62 1.78 7.13 3.2 10.53 1.41 3.41 3.14 6.64 5.19 9.71 2.05 3.07 4.38 5.9 6.98 8.51 2.61 2.61 5.44 4.93 8.51 6.98 3.07 2.05 6.3 3.78 9.71 5.19 3.41 1.41 6.92 2.48 10.53 3.19 3.61.72 7.26 1.08 10.95 1.08zm112.29-56.14c0-31.01 25.14-56.15 56.15-56.15h617.62c31.01 0 56.15 25.14 56.15 56.15s-25.14 56.15-56.15 56.15H286.57c-31.01-.01-56.15-25.14-56.15-56.15zM118.13 905.29c3.69 0 7.34-.36 10.95-1.08a56.083 56.083 0 0 0 20.24-8.38c3.07-2.05 5.9-4.38 8.51-6.98 2.61-2.61 4.93-5.44 6.98-8.51a56.339 56.339 0 0 0 8.39-20.24 55.999 55.999 0 0 0 0-21.9c-.72-3.62-1.78-7.13-3.2-10.53a55.892 55.892 0 0 0-5.19-9.71c-2.05-3.07-4.38-5.9-6.98-8.51a55.268 55.268 0 0 0-8.51-6.98c-3.07-2.05-6.3-3.78-9.71-5.19a55.572 55.572 0 0 0-10.53-3.19 55.999 55.999 0 0 0-21.9 0 55.86 55.86 0 0 0-10.53 3.19 55.892 55.892 0 0 0-9.71 5.19c-3.07 2.05-5.9 4.38-8.51 6.98a55.855 55.855 0 0 0-6.98 8.51 56.339 56.339 0 0 0-8.39 20.24 55.999 55.999 0 0 0 0 21.9c.72 3.62 1.78 7.13 3.2 10.53 1.41 3.41 3.14 6.64 5.19 9.71 2.05 3.07 4.38 5.9 6.98 8.51s5.44 4.93 8.51 6.98c3.07 2.05 6.3 3.78 9.71 5.19 3.41 1.41 6.92 2.48 10.53 3.19 3.61.72 7.26 1.08 10.95 1.08zm112.29-56.15c0-31.01 25.14-56.15 56.15-56.15h617.62c31.01 0 56.15 25.14 56.15 56.15 0 31.01-25.14 56.15-56.15 56.15H286.57c-31.01 0-56.15-25.14-56.15-56.15z"/></svg>