<svg xmlns="http://www.w3.org/2000/svg" viewBox="0 0 1024 1024"><path fill="#4E5969" d="M237.9 772.46H192c-25.35 0-46.99-8.96-64.91-26.89s-26.89-39.56-26.89-64.91v-459c0-25.35 8.96-46.99 26.89-64.91 17.93-17.93 39.56-26.89 64.91-26.89h642.6c25.35 0 46.99 8.96 64.91 26.89 17.93 17.93 26.89 39.56 26.89 64.91v459c0 25.35-8.96 46.99-26.89 64.91s-39.56 26.89-64.91 26.89H532.31L408.06 896.71l-64.91-64.91L467.4 707.55c17.93-17.93 39.56-26.89 64.91-26.89H834.6v-459H192v459h45.9v91.8z"/><path fill="#0062FF" d="M283.8 451.16a45.9 45.9 0 1 0 91.8 0 45.9 45.9 0 1 0-91.8 0Zm183.6 0a45.9 45.9 0 1 0 91.8 0 45.9 45.9 0 1 0-91.8 0Zm183.6 0a45.9 45.9 0 1 0 91.8 0 45.9 45.9 0 1 0-91.8 0Z"/></svg>