<svg xmlns="http://www.w3.org/2000/svg" viewBox="0 0 1024 1024"><path fill="#4E5969" d="M470.99 878.32v-43.55c-140.2-20.27-244.23-140.43-244.23-282.08V349.16c0-157.36 127.57-284.93 284.93-284.93S796.62 191.8 796.62 349.16v203.52c0 141.66-104.03 261.81-244.23 282.08v43.55h162.82v81.41H308.17v-81.41h162.82zm40.7-732.69c-112.4 0-203.52 91.12-203.52 203.52v203.52c0 112.4 91.12 203.52 203.52 203.52s203.52-91.12 203.52-203.52V349.16c.01-112.41-91.11-203.53-203.52-203.53z"/><path fill="#0256FF" d="M511.69 389.86c22.48 0 40.7-18.22 40.7-40.7 0-22.48-18.22-40.7-40.7-40.7-22.48 0-40.7 18.22-40.7 40.7 0 22.48 18.22 40.7 40.7 40.7zm0 81.41c-67.44 0-122.11-54.67-122.11-122.11s54.67-122.11 122.11-122.11S633.8 281.72 633.8 349.16s-54.66 122.11-122.11 122.11z"/></svg>