<svg xmlns="http://www.w3.org/2000/svg" class="icon" viewBox="0 0 1024 1024"><path fill="#4E5969" d="M308.38 511.99a122.314 122.314 0 0 1-2.35 23.81c-.78 3.92-1.75 7.79-2.91 11.62-1.16 3.82-2.51 7.58-4.04 11.28-1.53 3.69-3.24 7.3-5.12 10.83-1.88 3.52-3.94 6.95-6.16 10.27-2.22 3.32-4.6 6.53-7.13 9.62a122.95 122.95 0 0 1-8.04 8.87 121.366 121.366 0 0 1-18.49 15.17c-3.32 2.22-6.75 4.27-10.27 6.16-3.53 1.88-7.13 3.59-10.83 5.12-3.69 1.53-7.45 2.87-11.28 4.04a122.565 122.565 0 0 1-23.47 4.67c-3.98.39-7.97.59-11.96.59s-7.99-.2-11.96-.59a122.565 122.565 0 0 1-23.47-4.67c-3.83-1.16-7.58-2.51-11.28-4.04s-7.3-3.24-10.83-5.12c-3.53-1.88-6.95-3.94-10.27-6.16-3.32-2.22-6.53-4.6-9.62-7.13-3.09-2.54-6.05-5.22-8.87-8.04s-5.51-5.79-8.04-8.87c-2.54-3.09-4.91-6.3-7.14-9.62-2.22-3.32-4.27-6.75-6.16-10.27-1.88-3.53-3.59-7.13-5.12-10.83-1.53-3.69-2.87-7.45-4.04-11.28a122.565 122.565 0 0 1-4.67-23.47c-.39-3.98-.59-7.97-.59-11.96s.2-7.99.59-11.96a122.565 122.565 0 0 1 4.67-23.47c1.16-3.83 2.51-7.58 4.04-11.28 1.53-3.69 3.24-7.3 5.12-10.83s3.94-6.95 6.16-10.27c2.22-3.32 4.6-6.53 7.14-9.62 2.54-3.09 5.22-6.05 8.04-8.87s5.78-5.51 8.87-8.04c3.09-2.54 6.3-4.91 9.62-7.14 3.32-2.22 6.75-4.27 10.27-6.16 3.53-1.88 7.13-3.59 10.83-5.12 3.69-1.53 7.45-2.87 11.28-4.04a122.565 122.565 0 0 1 23.47-4.67c3.98-.39 7.97-.59 11.96-.59s7.99.2 11.96.59a122.565 122.565 0 0 1 23.47 4.67c3.82 1.16 7.58 2.51 11.28 4.04 3.69 1.53 7.3 3.24 10.83 5.12 3.52 1.88 6.95 3.94 10.27 6.16 3.32 2.22 6.53 4.6 9.62 7.14 3.09 2.54 6.05 5.22 8.87 8.04a121.366 121.366 0 0 1 15.17 18.49c2.22 3.32 4.27 6.75 6.16 10.27 1.88 3.53 3.59 7.13 5.12 10.83 1.53 3.69 2.87 7.45 4.04 11.28a122.565 122.565 0 0 1 4.67 23.47c.4 3.98.59 7.97.59 11.96zm325.48 0a122.314 122.314 0 0 1-2.35 23.81c-.78 3.92-1.75 7.79-2.91 11.62-1.16 3.82-2.51 7.58-4.04 11.28-1.53 3.69-3.24 7.3-5.12 10.83-1.88 3.52-3.94 6.95-6.16 10.27-2.22 3.32-4.6 6.53-7.14 9.62a122.95 122.95 0 0 1-8.04 8.87 121.366 121.366 0 0 1-18.49 15.17c-3.32 2.22-6.75 4.27-10.27 6.16a121.68 121.68 0 0 1-10.83 5.12c-3.69 1.53-7.45 2.87-11.28 4.04a122.565 122.565 0 0 1-23.47 4.67c-3.98.39-7.97.59-11.96.59s-7.99-.2-11.96-.59a122.565 122.565 0 0 1-23.47-4.67c-3.82-1.16-7.58-2.51-11.28-4.04-3.69-1.53-7.3-3.24-10.83-5.12-3.52-1.88-6.95-3.94-10.27-6.16-3.32-2.22-6.53-4.6-9.62-7.13a122.95 122.95 0 0 1-8.87-8.04 121.366 121.366 0 0 1-15.17-18.49c-2.22-3.32-4.27-6.75-6.16-10.27-1.88-3.53-3.59-7.13-5.12-10.83-1.53-3.69-2.87-7.45-4.04-11.28a122.565 122.565 0 0 1-4.67-23.47c-.39-3.98-.59-7.97-.59-11.96s.2-7.99.59-11.96a122.565 122.565 0 0 1 4.67-23.47c1.16-3.83 2.51-7.58 4.04-11.28 1.53-3.69 3.24-7.3 5.12-10.83 1.88-3.53 3.94-6.95 6.16-10.27 2.22-3.32 4.6-6.53 7.13-9.62 2.54-3.09 5.22-6.05 8.04-8.87 2.83-2.83 5.79-5.51 8.87-8.04 3.09-2.54 6.3-4.91 9.62-7.14 3.32-2.22 6.75-4.27 10.27-6.16 3.53-1.88 7.13-3.59 10.83-5.12 3.69-1.53 7.45-2.87 11.28-4.04a122.565 122.565 0 0 1 23.47-4.67c3.98-.39 7.97-.59 11.96-.59s7.99.2 11.96.59a122.565 122.565 0 0 1 23.47 4.67c3.82 1.16 7.58 2.51 11.28 4.04 3.69 1.53 7.3 3.24 10.83 5.12 3.53 1.88 6.95 3.94 10.27 6.16 3.32 2.22 6.53 4.6 9.62 7.14 3.09 2.54 6.05 5.22 8.87 8.04a121.366 121.366 0 0 1 15.17 18.49c2.22 3.32 4.27 6.75 6.16 10.27s3.59 7.13 5.12 10.83c1.53 3.69 2.87 7.45 4.04 11.28a122.565 122.565 0 0 1 4.67 23.47c.4 3.98.6 7.97.6 11.96zm203.42 122.06a122.314 122.314 0 0 0 23.81-2.35c3.92-.78 7.79-1.75 11.62-2.91 3.82-1.16 7.58-2.51 11.28-4.04s7.3-3.24 10.83-5.12c3.53-1.88 6.95-3.94 10.28-6.16 3.32-2.22 6.53-4.6 9.62-7.13 3.09-2.54 6.05-5.22 8.88-8.04a122.513 122.513 0 0 0 15.18-18.49c2.22-3.32 4.27-6.75 6.16-10.27 1.88-3.53 3.59-7.13 5.12-10.83 1.53-3.69 2.87-7.45 4.04-11.28a122.565 122.565 0 0 0 4.67-23.47c.39-3.98.59-7.97.59-11.96s-.2-7.99-.59-11.96a122.565 122.565 0 0 0-4.67-23.47c-1.16-3.83-2.51-7.58-4.04-11.28-1.53-3.69-3.24-7.3-5.12-10.83-1.89-3.53-3.94-6.95-6.16-10.27-2.22-3.32-4.6-6.53-7.14-9.62a118.44 118.44 0 0 0-8.04-8.87 120.59 120.59 0 0 0-8.88-8.04c-3.09-2.54-6.3-4.91-9.62-7.14-3.33-2.22-6.75-4.27-10.28-6.16a124.38 124.38 0 0 0-10.83-5.12c-3.69-1.53-7.45-2.87-11.28-4.04a122.565 122.565 0 0 0-23.47-4.67c-3.98-.39-7.97-.59-11.96-.59s-7.99.2-11.96.59a122.565 122.565 0 0 0-23.47 4.67c-3.82 1.16-7.58 2.51-11.28 4.04-3.69 1.53-7.3 3.24-10.83 5.12-3.52 1.88-6.95 3.94-10.27 6.16-3.32 2.22-6.53 4.6-9.62 7.14-3.09 2.54-6.05 5.22-8.88 8.04s-5.51 5.78-8.04 8.87c-2.54 3.09-4.91 6.3-7.13 9.62-2.22 3.32-4.27 6.75-6.16 10.27-1.88 3.53-3.59 7.13-5.12 10.83a122.565 122.565 0 0 0-8.7 34.75c-.39 3.98-.59 7.97-.59 11.96s.2 7.99.59 11.96a122.565 122.565 0 0 0 4.67 23.47c1.16 3.82 2.51 7.58 4.03 11.28 1.53 3.69 3.24 7.3 5.12 10.83 1.88 3.52 3.94 6.95 6.16 10.27 2.22 3.32 4.6 6.53 7.14 9.62 2.54 3.09 5.22 6.05 8.04 8.87s5.79 5.51 8.88 8.04c3.09 2.54 6.3 4.91 9.62 7.13s6.75 4.27 10.27 6.16c3.53 1.88 7.13 3.59 10.83 5.12 3.69 1.53 7.45 2.87 11.28 4.04a122.565 122.565 0 0 0 23.47 4.67c3.96.39 7.95.59 11.95.59z"/></svg>