<svg xmlns="http://www.w3.org/2000/svg" viewBox="0 0 1024 1024"><path fill="#4E5969" d="M137.28 746.22H318.9L526.47 901.9c28.66 0 51.89-16.33 51.89-36.49v-705.4c0-20.15-23.23-36.49-51.89-36.49L318.9 279.2H137.28c-21.49 0-38.92 15.68-38.92 35.03V711.2c0 19.34 17.43 35.02 38.92 35.02zM523.74 838 318.9 694.34H150.25V331.09H318.9l204.84-143.67V838zm283.74-618.4c74.87 75.09 121.16 178.7 121.16 293.12 0 114.64-46.46 218.42-121.59 293.55l-.09-.09a25.854 25.854 0 0 1-18.66 7.92c-14.33 0-25.95-11.62-25.95-25.94 0-8.06 3.68-15.27 9.44-20.02 64.89-65.62 104.96-155.83 104.96-255.41 0-100.31-40.66-191.12-106.39-256.85l.02-.02a25.854 25.854 0 0 1-7.92-18.66c0-14.33 11.62-25.95 25.94-25.95 7.54-.02 14.34 3.2 19.08 8.35zM699.67 331.98c45.37 46.72 73.29 110.46 73.29 180.73 0 71-28.51 135.34-74.72 182.19-4.76 5.67-11.9 9.28-19.89 9.28-14.33 0-25.94-11.61-25.94-25.94 0-7.34 3.04-13.96 7.93-18.68l-.07-.07c37.56-37.56 60.8-89.45 60.8-146.77 0-57.32-23.23-109.21-60.8-146.77l.11-.11c-4.34-4.64-7-10.87-7-17.73 0-14.33 11.61-25.95 25.95-25.95 8.24 0 15.58 3.84 20.34 9.82z"/></svg>