<svg xmlns="http://www.w3.org/2000/svg" viewBox="0 0 1024 1024"><path fill="#B8BCC2" d="M782.58 870H673.12v89.56h109.46c37.1 0 68.76-13.12 94.99-39.35 26.23-26.23 39.35-57.9 39.35-94.99V556.53c0-37.1-13.12-68.76-39.35-94.99-26.23-26.23-57.9-39.35-94.99-39.35H245.22c-37.1 0-68.76 13.12-94.99 39.35s-39.35 57.9-39.35 94.99v268.68c0 37.1 13.12 68.76 39.35 94.99 26.23 26.23 57.9 39.35 94.99 39.35h109.46V870H245.22c-12.37 0-22.92-4.37-31.66-13.12-8.74-8.74-13.12-19.3-13.12-31.66V556.53c0-12.37 4.37-22.92 13.12-31.66 8.74-8.74 19.3-13.12 31.66-13.12h537.37c12.37 0 22.92 4.37 31.66 13.12 8.74 8.74 13.12 19.3 13.12 31.66v268.68c0 12.37-4.37 22.92-13.12 31.66-8.75 8.75-19.3 13.13-31.67 13.13z"/><path fill="#B8BCC2" d="M245.22 332.63v179.12h537.37V332.63c0-148.39-120.29-268.68-268.68-268.68S245.22 184.24 245.22 332.63zm447.8 0v89.56H334.78v-89.56c0-49.46 17.49-91.68 52.46-126.66s77.2-52.46 126.66-52.46 91.68 17.49 126.66 52.46c34.98 34.98 52.46 77.2 52.46 126.66z"/><path fill="#0062FF" d="M469.12 646.09h89.56v179.12h-89.56z"/><path fill="#0062FF" d="M424.34 646.09a89.56 89.56 0 1 0 179.12 0 89.56 89.56 0 1 0-179.12 0Z"/></svg>