<svg xmlns="http://www.w3.org/2000/svg" class="icon" viewBox="0 0 1024 1024"><path fill="#4E5969" d="M511.69 65.32c246.69 0 446.67 199.98 446.67 446.67 0 246.69-199.98 446.67-446.67 446.67C265 958.65 65.02 758.68 65.02 511.99 65.02 265.3 265 65.32 511.69 65.32zm0 81.21c-201.84 0-365.45 163.62-365.45 365.45 0 201.83 163.62 365.46 365.45 365.46 201.83 0 365.46-163.62 365.46-365.46-.01-201.83-163.63-365.45-365.46-365.45zm20.3 527.88c11.21 0 20.3 9.09 20.3 20.3v40.6c0 11.21-9.09 20.31-20.3 20.31h-40.6c-11.21 0-20.3-9.09-20.3-20.31v-40.6c0-11.21 9.09-20.3 20.3-20.3h40.6zm-26.07-406.06c48.27 0 88.37 11.69 120.3 35.07 31.93 23.38 47.9 58.01 47.9 103.9 0 28.14-6.94 51.84-20.82 71.11-8.12 11.69-23.71 26.63-46.77 44.81l-22.75 17.86c-12.39 9.74-20.61 21.1-24.67 34.09-1.1 3.54-2.08 10.13-2.91 19.77-.91 10.49-9.69 18.55-20.23 18.55h-45.46c-11.21 0-20.3-9.09-20.3-20.3 0-.62.03-1.25.09-1.87 2.61-28.26 5.41-46.14 8.4-53.64 5.55-13.96 19.86-30.03 42.93-48.22l23.39-18.51c7.69-5.84 47.31-33.74 47.31-58.45 0-24.7-4.3-33.79-16.71-47.34-12.4-13.56-40.32-17.92-65.52-17.92-24.77 0-45.95 6.58-56.3 23.25-4.8 7.72-8.72 15.95-11.55 24.36-1.11 3.31-2.1 7.46-2.96 12.48-1.67 9.75-10.12 16.87-20.01 16.87h-47.8c-11.21 0-20.3-9.09-20.3-20.3 0-.77.04-1.53.13-2.29.52-4.54 1.04-8.31 1.59-11.33 7.92-44.08 27.96-76.5 60.14-97.25 25.18-16.47 56.15-24.7 92.88-24.7z"/></svg>