<svg xmlns="http://www.w3.org/2000/svg" class="icon" viewBox="0 0 1024 1024"><path fill="#4E5969" d="M268.27 337.36c13.44 0 24.91 4.75 34.41 14.25 9.5 9.5 14.25 20.97 14.25 34.41 0 13.44-4.75 24.91-14.25 34.41-9.5 9.5-20.97 14.25-34.41 14.25H122.28c-16.12 0-29.89-5.7-41.29-17.1-11.4-11.4-17.1-25.17-17.1-41.29V201.11c0-13.44 4.75-24.91 14.25-34.41 9.5-9.5 20.97-14.25 34.41-14.25 13.44 0 24.91 4.75 34.41 14.25 9.5 9.5 14.25 20.97 14.25 34.41v32.46c34.15-43.12 75.58-78.96 124.3-107.52 69.59-40.79 144.95-61.19 226.06-61.19 103.77 0 196.27 32.11 277.48 96.34 79.9 63.19 132.16 143.92 156.79 242.19 3.27 13.03 1.45 25.32-5.46 36.84-6.91 11.53-16.88 18.92-29.91 22.19-13.03 3.27-25.31 1.45-36.84-5.46-11.52-6.91-18.92-16.88-22.18-29.91-19.28-76.88-60.2-140.05-122.76-189.51-63.55-50.24-135.92-75.36-217.12-75.36-69.36 0-132.97 18.82-190.83 56.47-47.6 30.97-85.18 70.54-112.77 118.71h60.3zm243.3 525.54c69.36 0 132.97-18.82 190.83-56.47 47.6-30.97 85.19-70.54 112.77-118.71h-60.29c-13.44 0-24.91-4.75-34.41-14.25-9.5-9.5-14.25-20.97-14.25-34.41s4.75-24.91 14.25-34.41c9.5-9.5 20.97-14.25 34.41-14.25h145.98c16.13 0 29.89 5.7 41.29 17.1 11.4 11.4 17.11 25.17 17.11 41.29v179.34l-1.7 3.8c-12.15 27.14-27.81 40.71-46.96 40.71-13.44 0-24.91-4.75-34.41-14.26-9.5-9.5-14.26-20.97-14.26-34.41v-32.45c-34.15 43.12-75.58 78.96-124.31 107.52-69.59 40.79-144.95 61.19-226.06 61.19-103.77 0-196.27-32.11-277.48-96.34-79.88-63.2-132.15-143.93-156.78-242.2-3.27-13.03-1.45-25.31 5.46-36.84 6.91-11.53 16.88-18.92 29.91-22.19 13.03-3.27 25.32-1.45 36.84 5.46 11.53 6.91 18.92 16.88 22.19 29.91 19.27 76.87 60.19 140.04 122.75 189.51 63.56 50.24 135.93 75.36 217.12 75.36z"/></svg>