<svg xmlns="http://www.w3.org/2000/svg" viewBox="0 0 1024 1024"><path fill="#FFF" fill-opacity=".01" d="M53.74 54.95h915.02v915.02H53.74z"/><path fill="#E5EDFF" d="M511.24 893.71c105.28 0 200.6-42.68 269.59-111.67 68.99-68.99 111.67-164.31 111.67-269.59 0-105.28-42.68-200.6-111.67-269.59-68.99-68.99-164.31-111.67-269.59-111.67-105.28 0-200.6 42.67-269.59 111.67-68.99 69-111.67 164.31-111.67 269.59 0 105.28 42.67 200.6 111.67 269.59 69 68.99 164.31 111.67 269.59 111.67z"/><path fill="#E5EDFF" d="M287.87 735.82c61.69 61.69 136.14 92.53 223.38 92.53 87.23 0 161.69-30.84 223.38-92.53 61.69-61.68 92.53-136.14 92.53-223.38 0-87.23-30.84-161.69-92.53-223.38-61.68-61.68-136.14-92.52-223.38-92.52-87.23 0-161.69 30.84-223.38 92.53-61.68 61.68-92.52 136.14-92.52 223.38-.01 87.23 30.83 161.69 92.52 223.37zm-92.44 92.43c-87.2-87.2-130.81-192.47-130.81-315.8 0-123.33 43.6-228.6 130.81-315.81 87.21-87.21 192.48-130.81 315.81-130.81 123.33 0 228.6 43.6 315.81 130.81 87.21 87.21 130.82 192.48 130.82 315.81 0 123.33-43.61 228.6-130.82 315.81-87.21 87.21-192.48 130.82-315.81 130.82-123.33-.01-228.6-43.62-315.81-130.83z"/><path fill="#0062FF" d="M511.25 226.51c31.58 0 57.19 25.6 57.19 57.19 0 31.58-25.6 57.19-57.19 57.19-31.58 0-57.19-25.61-57.19-57.19s25.61-57.19 57.19-57.19zM482.66 387.2h38.12c3.22 0 6.41.31 9.56.94 3.16.63 6.22 1.56 9.2 2.79 2.97 1.23 5.8 2.74 8.47 4.53a48.82 48.82 0 0 1 7.43 6.1 48.82 48.82 0 0 1 6.1 7.43 48.89 48.89 0 0 1 7.32 17.67c.63 3.16.94 6.34.94 9.56V703.1c0 3.22-.31 6.41-.94 9.56-.63 3.16-1.56 6.22-2.79 9.2-1.23 2.97-2.74 5.8-4.53 8.47a48.82 48.82 0 0 1-6.1 7.43 48.82 48.82 0 0 1-7.43 6.1 48.89 48.89 0 0 1-17.67 7.32c-3.16.63-6.34.94-9.56.94-3.22 0-6.41-.31-9.56-.94-3.16-.63-6.22-1.56-9.2-2.79-2.97-1.23-5.8-2.74-8.47-4.53a48.82 48.82 0 0 1-7.43-6.1 48.82 48.82 0 0 1-6.1-7.43 48.89 48.89 0 0 1-7.32-17.67c-.63-3.16-.94-6.34-.94-9.56V436.22h49.02v49.02h-38.12c-3.22 0-6.41-.31-9.56-.94-3.16-.63-6.22-1.56-9.2-2.79-2.97-1.23-5.8-2.74-8.47-4.53a48.82 48.82 0 0 1-7.43-6.1 48.82 48.82 0 0 1-6.1-7.43 48.89 48.89 0 0 1-7.32-17.67c-.63-3.16-.94-6.34-.94-9.56 0-3.22.31-6.41.94-9.56.63-3.16 1.56-6.22 2.79-9.2 1.23-2.97 2.74-5.8 4.53-8.47 1.79-2.68 3.82-5.15 6.1-7.43s4.75-4.31 7.43-6.1a48.89 48.89 0 0 1 17.67-7.32c3.15-.63 6.34-.94 9.56-.94zm49.02 49.02c0 3.22-.31 6.41-.94 9.56s-1.56 6.22-2.79 9.2c-1.23 2.97-2.74 5.8-4.53 8.47a48.82 48.82 0 0 1-6.1 7.43 48.82 48.82 0 0 1-7.43 6.1 48.89 48.89 0 0 1-17.67 7.32c-3.16.63-6.34.94-9.56.94s-6.41-.31-9.56-.94c-3.16-.63-6.22-1.56-9.2-2.79-2.97-1.23-5.8-2.74-8.47-4.53a48.82 48.82 0 0 1-7.43-6.1 48.82 48.82 0 0 1-6.1-7.43 48.89 48.89 0 0 1-7.32-17.67c-.63-3.16-.94-6.34-.94-9.56 0-3.22.31-6.41.94-9.56.63-3.16 1.56-6.22 2.79-9.2 1.23-2.97 2.74-5.8 4.53-8.47 1.79-2.68 3.82-5.15 6.1-7.43s4.75-4.31 7.43-6.1a48.89 48.89 0 0 1 17.67-7.32c3.16-.63 6.34-.94 9.56-.94s6.41.31 9.56.94 6.22 1.56 9.2 2.79c2.97 1.23 5.8 2.74 8.47 4.53a48.82 48.82 0 0 1 7.43 6.1 48.82 48.82 0 0 1 6.1 7.43 48.89 48.89 0 0 1 7.32 17.67c.62 3.15.94 6.34.94 9.56zM569.8 703.1c0 3.22-.31 6.41-.94 9.56-.63 3.16-1.56 6.22-2.79 9.2-1.23 2.97-2.74 5.8-4.53 8.47a48.82 48.82 0 0 1-6.1 7.43 48.82 48.82 0 0 1-7.43 6.1 48.89 48.89 0 0 1-17.67 7.32c-3.16.63-6.34.94-9.56.94-3.22 0-6.41-.31-9.56-.94-3.16-.63-6.22-1.56-9.2-2.79-2.97-1.23-5.8-2.74-8.47-4.53a48.82 48.82 0 0 1-7.43-6.1 48.82 48.82 0 0 1-6.1-7.43 48.89 48.89 0 0 1-7.32-17.67c-.63-3.16-.94-6.34-.94-9.56 0-3.22.31-6.41.94-9.56.63-3.16 1.56-6.22 2.79-9.2 1.23-2.97 2.74-5.8 4.53-8.47a48.82 48.82 0 0 1 6.1-7.43 48.82 48.82 0 0 1 7.43-6.1 48.89 48.89 0 0 1 17.67-7.32c3.16-.63 6.34-.94 9.56-.94 3.22 0 6.41.31 9.56.94 3.16.63 6.22 1.56 9.2 2.79 2.97 1.23 5.8 2.74 8.47 4.53s5.15 3.82 7.43 6.1a48.82 48.82 0 0 1 6.1 7.43 48.89 48.89 0 0 1 7.32 17.67c.63 3.15.94 6.34.94 9.56z"/><path fill="#0062FF" d="M587.51 752.1H454.06c-3.22 0-6.41-.31-9.56-.94-3.16-.63-6.22-1.56-9.2-2.79-2.97-1.23-5.8-2.74-8.47-4.53a48.82 48.82 0 0 1-7.43-6.1 48.82 48.82 0 0 1-6.1-7.43 48.89 48.89 0 0 1-7.32-17.67c-.63-3.16-.94-6.34-.94-9.56s.31-6.41.94-9.56c.63-3.16 1.56-6.22 2.79-9.2 1.23-2.97 2.74-5.8 4.53-8.47a48.82 48.82 0 0 1 6.1-7.43 48.82 48.82 0 0 1 7.43-6.1A48.89 48.89 0 0 1 444.5 655c3.16-.63 6.34-.94 9.56-.94H587.5c3.22 0 6.41.31 9.56.94 3.16.63 6.22 1.56 9.2 2.79 2.97 1.23 5.8 2.74 8.47 4.53a48.82 48.82 0 0 1 7.43 6.1 48.82 48.82 0 0 1 6.1 7.43 48.89 48.89 0 0 1 7.32 17.67c.63 3.16.94 6.34.94 9.56s-.31 6.41-.94 9.56c-.63 3.16-1.56 6.22-2.79 9.2-1.23 2.97-2.74 5.8-4.53 8.47a48.82 48.82 0 0 1-6.1 7.43 48.82 48.82 0 0 1-7.43 6.1 48.89 48.89 0 0 1-17.67 7.32c-3.15.62-6.34.94-9.55.94zm49.02-49.02c0 3.22-.31 6.41-.94 9.56-.63 3.16-1.56 6.22-2.79 9.2-1.23 2.97-2.74 5.8-4.53 8.47a48.82 48.82 0 0 1-6.1 7.43 48.82 48.82 0 0 1-7.43 6.1 48.89 48.89 0 0 1-17.67 7.32c-3.16.63-6.34.94-9.56.94-3.22 0-6.41-.31-9.56-.94-3.16-.63-6.22-1.56-9.2-2.79-2.97-1.23-5.8-2.74-8.47-4.53a48.82 48.82 0 0 1-7.43-6.1 48.82 48.82 0 0 1-6.1-7.43 48.89 48.89 0 0 1-7.32-17.67c-.63-3.16-.94-6.34-.94-9.56s.31-6.41.94-9.56c.63-3.16 1.56-6.22 2.79-9.2 1.23-2.97 2.74-5.8 4.53-8.47a48.82 48.82 0 0 1 6.1-7.43 48.82 48.82 0 0 1 7.43-6.1 48.89 48.89 0 0 1 17.67-7.32c3.16-.63 6.34-.94 9.56-.94 3.22 0 6.41.31 9.56.94 3.16.63 6.22 1.56 9.2 2.79 2.97 1.23 5.8 2.74 8.47 4.53a48.82 48.82 0 0 1 7.43 6.1 48.82 48.82 0 0 1 6.1 7.43 48.89 48.89 0 0 1 7.32 17.67c.62 3.15.94 6.34.94 9.56zm-133.45 0c0 3.22-.31 6.41-.94 9.56-.63 3.16-1.56 6.22-2.79 9.2-1.23 2.97-2.74 5.8-4.53 8.47a48.82 48.82 0 0 1-6.1 7.43 48.82 48.82 0 0 1-7.43 6.1 48.89 48.89 0 0 1-17.67 7.32c-3.16.63-6.34.94-9.56.94-3.22 0-6.41-.31-9.56-.94-3.16-.63-6.22-1.56-9.2-2.79-2.97-1.23-5.8-2.74-8.47-4.53a48.82 48.82 0 0 1-7.43-6.1 48.82 48.82 0 0 1-6.1-7.43 48.89 48.89 0 0 1-7.32-17.67c-.63-3.16-.94-6.34-.94-9.56s.31-6.41.94-9.56c.63-3.16 1.56-6.22 2.79-9.2 1.23-2.97 2.74-5.8 4.53-8.47a48.82 48.82 0 0 1 6.1-7.43 48.82 48.82 0 0 1 7.43-6.1A48.89 48.89 0 0 1 444.5 655c3.16-.63 6.34-.94 9.56-.94 3.22 0 6.41.31 9.56.94s6.22 1.56 9.2 2.79c2.97 1.23 5.8 2.74 8.47 4.53a48.82 48.82 0 0 1 7.43 6.1 48.82 48.82 0 0 1 6.1 7.43 48.89 48.89 0 0 1 7.32 17.67c.63 3.15.94 6.34.94 9.56z"/></svg>