<svg xmlns="http://www.w3.org/2000/svg" viewBox="0 0 1024 1024"><path fill="#FFF" fill-opacity=".01" d="M55.31 55.22h913.14v913.14H55.31z"/><path fill="#0062FF" d="M511.87 892.26c105.06 0 200.18-42.59 269.04-111.44 68.85-68.85 111.44-163.97 111.44-269.04 0-105.06-42.59-200.18-111.44-269.04-68.85-68.85-163.97-111.44-269.04-111.44-105.06 0-200.18 42.59-269.04 111.44-68.85 68.85-111.44 163.97-111.44 269.04 0 105.06 42.59 200.18 111.44 269.04 68.85 68.85 163.97 111.44 269.04 111.44z"/><path fill="#0062FF" d="M288.95 734.7c61.56 61.56 135.86 92.34 222.92 92.34 87.05 0 161.36-30.78 222.92-92.34 61.56-61.56 92.34-135.86 92.34-222.92 0-87.05-30.78-161.36-92.34-222.92-61.56-61.56-135.86-92.33-222.91-92.33-87.05 0-161.36 30.78-222.92 92.34-61.56 61.56-92.33 135.86-92.33 222.91-.01 87.05 30.76 161.36 92.32 222.92zm-92.24 92.24C109.68 739.91 66.17 634.86 66.17 511.78c0-123.08 43.51-228.13 130.54-315.16C283.74 109.6 388.79 66.08 511.87 66.08c123.08 0 228.13 43.51 315.15 130.54 87.03 87.03 130.55 192.08 130.55 315.16 0 123.08-43.52 228.13-130.55 315.15-87.03 87.03-192.08 130.55-315.15 130.55-123.08 0-228.13-43.51-315.16-130.54z"/><path fill="#FFF" d="M511.88 226.44c31.52 0 57.07 25.55 57.07 57.07s-25.55 57.07-57.07 57.07-57.07-25.55-57.07-57.07 25.55-57.07 57.07-57.07zm-28.54 160.35h38.04a49.074 49.074 0 0 1 18.72 3.72 49.07 49.07 0 0 1 8.46 4.52c2.67 1.78 5.14 3.81 7.41 6.08 2.27 2.27 4.3 4.74 6.08 7.41a49.07 49.07 0 0 1 4.52 8.46c1.23 2.97 2.16 6.03 2.78 9.18.63 3.15.94 6.33.94 9.54v266.33a49.074 49.074 0 0 1-3.72 18.72 49.07 49.07 0 0 1-4.52 8.46 48.535 48.535 0 0 1-6.08 7.41c-2.27 2.27-4.74 4.3-7.41 6.08a49.07 49.07 0 0 1-8.46 4.52 48.339 48.339 0 0 1-9.18 2.78c-3.15.63-6.33.94-9.54.94a49.074 49.074 0 0 1-18.72-3.72 49.07 49.07 0 0 1-8.46-4.52 48.535 48.535 0 0 1-7.41-6.08c-2.27-2.27-4.3-4.74-6.08-7.41a49.07 49.07 0 0 1-4.52-8.46 48.339 48.339 0 0 1-2.78-9.18c-.63-3.15-.94-6.33-.94-9.54V435.71h48.92v48.92h-38.04a49.074 49.074 0 0 1-18.72-3.72 49.07 49.07 0 0 1-8.46-4.52 48.535 48.535 0 0 1-7.41-6.08c-2.27-2.27-4.3-4.74-6.08-7.41a49.07 49.07 0 0 1-4.52-8.46 48.339 48.339 0 0 1-2.78-9.18c-.63-3.15-.94-6.33-.94-9.54s.31-6.39.94-9.54c.63-3.15 1.55-6.21 2.78-9.18a49.07 49.07 0 0 1 4.52-8.46c1.78-2.67 3.81-5.14 6.08-7.41 2.27-2.27 4.74-4.3 7.41-6.08a49.07 49.07 0 0 1 8.46-4.52c2.97-1.23 6.03-2.16 9.18-2.78a46.9 46.9 0 0 1 9.53-.96zm48.92 48.92a49.074 49.074 0 0 1-3.72 18.72 49.07 49.07 0 0 1-4.52 8.46 48.535 48.535 0 0 1-6.08 7.41c-2.27 2.27-4.74 4.3-7.41 6.08a49.07 49.07 0 0 1-8.46 4.52 48.339 48.339 0 0 1-9.18 2.78c-3.15.63-6.33.94-9.54.94a49.074 49.074 0 0 1-18.72-3.72 49.07 49.07 0 0 1-8.46-4.52 48.535 48.535 0 0 1-7.41-6.08c-2.27-2.27-4.3-4.74-6.08-7.41a49.07 49.07 0 0 1-4.52-8.46 48.339 48.339 0 0 1-2.78-9.18c-.63-3.15-.94-6.33-.94-9.54s.31-6.39.94-9.54c.63-3.15 1.55-6.21 2.78-9.18a49.07 49.07 0 0 1 4.52-8.46c1.78-2.67 3.81-5.14 6.08-7.41 2.27-2.27 4.74-4.3 7.41-6.08a49.07 49.07 0 0 1 8.46-4.52c2.97-1.23 6.03-2.16 9.18-2.78 3.15-.63 6.33-.94 9.54-.94a49.074 49.074 0 0 1 18.72 3.72 49.07 49.07 0 0 1 8.46 4.52c2.67 1.78 5.14 3.81 7.41 6.08 2.27 2.27 4.3 4.74 6.08 7.41a49.07 49.07 0 0 1 4.52 8.46c1.23 2.97 2.16 6.03 2.78 9.18.63 3.14.94 6.33.94 9.54zm38.05 266.33a49.074 49.074 0 0 1-3.72 18.72 49.07 49.07 0 0 1-4.52 8.46 48.535 48.535 0 0 1-6.08 7.41c-2.27 2.27-4.74 4.3-7.41 6.08a49.07 49.07 0 0 1-8.46 4.52 48.339 48.339 0 0 1-9.18 2.78c-3.15.63-6.33.94-9.54.94a49.074 49.074 0 0 1-18.72-3.72 49.07 49.07 0 0 1-8.46-4.52 48.535 48.535 0 0 1-7.41-6.08c-2.27-2.27-4.3-4.74-6.08-7.41a49.07 49.07 0 0 1-4.52-8.46 48.339 48.339 0 0 1-2.78-9.18c-.63-3.15-.94-6.33-.94-9.54a49.074 49.074 0 0 1 3.72-18.72 49.07 49.07 0 0 1 4.52-8.46c1.78-2.67 3.81-5.14 6.08-7.41 2.27-2.27 4.74-4.3 7.41-6.08s5.49-3.29 8.46-4.52c2.97-1.23 6.03-2.16 9.18-2.78 3.15-.63 6.33-.94 9.54-.94s6.39.31 9.54.94c3.15.63 6.21 1.55 9.18 2.78a49.07 49.07 0 0 1 8.46 4.52c2.67 1.78 5.14 3.81 7.41 6.08 2.27 2.27 4.3 4.74 6.08 7.41 1.78 2.67 3.29 5.49 4.52 8.46s2.16 6.03 2.78 9.18c.62 3.15.94 6.33.94 9.54z"/><path fill="#FFF" d="M587.97 750.94H454.81a49.074 49.074 0 0 1-18.72-3.72 49.07 49.07 0 0 1-8.46-4.52c-2.67-1.78-5.14-3.81-7.41-6.08s-4.3-4.74-6.08-7.41a49.07 49.07 0 0 1-4.52-8.46 48.339 48.339 0 0 1-2.78-9.18c-.63-3.15-.94-6.33-.94-9.54s.31-6.39.94-9.54c.63-3.15 1.55-6.21 2.78-9.18a49.07 49.07 0 0 1 4.52-8.46c1.78-2.67 3.81-5.14 6.08-7.41 2.27-2.27 4.74-4.3 7.41-6.08a49.07 49.07 0 0 1 8.46-4.52c2.97-1.23 6.03-2.16 9.18-2.78 3.15-.63 6.33-.94 9.54-.94h133.17a49.074 49.074 0 0 1 18.72 3.72 49.07 49.07 0 0 1 8.46 4.52c2.67 1.78 5.14 3.81 7.41 6.08 2.27 2.27 4.3 4.74 6.08 7.41a49.07 49.07 0 0 1 4.52 8.46c1.23 2.97 2.16 6.03 2.78 9.18.63 3.15.94 6.33.94 9.54s-.31 6.39-.94 9.54c-.63 3.15-1.55 6.21-2.78 9.18a49.07 49.07 0 0 1-4.52 8.46 48.535 48.535 0 0 1-6.08 7.41c-2.27 2.27-4.74 4.3-7.41 6.08a49.07 49.07 0 0 1-8.46 4.52 48.339 48.339 0 0 1-9.18 2.78c-3.15.62-6.34.94-9.55.94zm48.92-48.92a49.074 49.074 0 0 1-3.72 18.72 49.07 49.07 0 0 1-4.52 8.46 48.535 48.535 0 0 1-6.08 7.41c-2.27 2.27-4.74 4.3-7.41 6.08a49.07 49.07 0 0 1-8.46 4.52 48.339 48.339 0 0 1-9.18 2.78c-3.15.63-6.33.94-9.54.94s-6.39-.31-9.54-.94-6.21-1.55-9.18-2.78a49.07 49.07 0 0 1-8.46-4.52 48.535 48.535 0 0 1-7.41-6.08c-2.27-2.27-4.3-4.74-6.08-7.41a49.07 49.07 0 0 1-4.52-8.46 48.339 48.339 0 0 1-2.78-9.18c-.63-3.15-.94-6.33-.94-9.54s.31-6.39.94-9.54c.63-3.15 1.55-6.21 2.78-9.18s2.74-5.79 4.52-8.46c1.78-2.67 3.81-5.14 6.08-7.41 2.27-2.27 4.74-4.3 7.41-6.08a49.07 49.07 0 0 1 8.46-4.52c2.97-1.23 6.03-2.16 9.18-2.78 3.15-.63 6.33-.94 9.54-.94s6.39.31 9.54.94c3.15.63 6.21 1.55 9.18 2.78a49.07 49.07 0 0 1 8.46 4.52c2.67 1.78 5.14 3.81 7.41 6.08 2.27 2.27 4.3 4.74 6.08 7.41a49.07 49.07 0 0 1 4.52 8.46c1.23 2.97 2.16 6.03 2.78 9.18.63 3.15.94 6.33.94 9.54zm-133.17 0a49.074 49.074 0 0 1-3.72 18.72 49.07 49.07 0 0 1-4.52 8.46 48.535 48.535 0 0 1-6.08 7.41c-2.27 2.27-4.74 4.3-7.41 6.08a49.07 49.07 0 0 1-8.46 4.52 48.339 48.339 0 0 1-9.18 2.78c-3.15.63-6.33.94-9.54.94a49.074 49.074 0 0 1-18.72-3.72 49.07 49.07 0 0 1-8.46-4.52c-2.67-1.78-5.14-3.81-7.41-6.08s-4.3-4.74-6.08-7.41a49.07 49.07 0 0 1-4.52-8.46 48.339 48.339 0 0 1-2.78-9.18c-.63-3.15-.94-6.33-.94-9.54s.31-6.39.94-9.54c.63-3.15 1.55-6.21 2.78-9.18a49.07 49.07 0 0 1 4.52-8.46c1.78-2.67 3.81-5.14 6.08-7.41 2.27-2.27 4.74-4.3 7.41-6.08a49.07 49.07 0 0 1 8.46-4.52c2.97-1.23 6.03-2.16 9.18-2.78 3.15-.63 6.33-.94 9.54-.94a49.074 49.074 0 0 1 18.72 3.72 49.07 49.07 0 0 1 8.46 4.52c2.67 1.78 5.14 3.81 7.41 6.08 2.27 2.27 4.3 4.74 6.08 7.41a49.07 49.07 0 0 1 4.52 8.46c1.23 2.97 2.16 6.03 2.78 9.18.63 3.15.94 6.33.94 9.54z"/></svg>