<svg xmlns="http://www.w3.org/2000/svg" class="icon" viewBox="0 0 1024 1024"><path fill="#4E5969" d="M713.91 767.04a370.073 370.073 0 0 1-114.4 69.49 368.57 368.57 0 0 1-64.72 18.11 369.104 369.104 0 0 1-85.08 5.66c-6.05-.3-12.08-.74-18.1-1.33-6.02-.6-12.03-1.34-18.02-2.23-5.99-.89-11.95-1.92-17.89-3.1-5.94-1.18-11.84-2.51-17.71-3.98-5.87-1.47-11.7-3.08-17.5-4.84a386.08 386.08 0 0 1-17.24-5.69c-5.7-2.04-11.35-4.22-16.94-6.54-5.59-2.32-11.12-4.77-16.6-7.35-5.47-2.59-10.88-5.31-16.22-8.16-5.34-2.85-10.6-5.84-15.8-8.95-5.19-3.11-10.3-6.35-15.34-9.71-5.03-3.36-9.98-6.85-14.84-10.46-4.86-3.61-9.63-7.33-14.31-11.17s-9.26-7.8-13.75-11.86-8.87-8.23-13.15-12.51a370.19 370.19 0 0 1-12.52-13.15c-4.07-4.48-8.02-9.07-11.86-13.75s-7.56-9.45-11.17-14.31c-3.61-4.86-7.09-9.81-10.45-14.84a370.21 370.21 0 0 1-9.71-15.34c-3.11-5.19-6.09-10.46-8.95-15.79a372.338 372.338 0 0 1-15.52-32.82c-2.32-5.59-4.49-11.24-6.53-16.94-2.04-5.7-3.94-11.45-5.69-17.24-1.76-5.79-3.37-11.62-4.84-17.5-1.47-5.87-2.8-11.78-3.98-17.71-1.18-5.94-2.22-11.9-3.1-17.89-.89-5.99-1.63-11.99-2.22-18.02a377.79 377.79 0 0 1-1.34-18.1c-.27-6.02-.42-12.07-.42-18.13 0-6.05.15-12.1.45-18.15.3-6.05.74-12.08 1.34-18.1.59-6.02 1.33-12.03 2.22-18.02.89-5.99 1.92-11.95 3.1-17.89 1.18-5.94 2.51-11.84 3.98-17.71 1.47-5.87 3.08-11.7 4.84-17.5 1.76-5.79 3.66-11.54 5.69-17.24s4.22-11.35 6.53-16.94 4.77-11.12 7.36-16.6c2.59-5.47 5.31-10.88 8.16-16.22 2.85-5.34 5.84-10.6 8.95-15.8 3.11-5.19 6.35-10.3 9.71-15.34 3.36-5.03 6.85-9.98 10.45-14.84 3.61-4.86 7.33-9.63 11.17-14.31s7.79-9.26 11.86-13.75a370.19 370.19 0 0 1 39.42-37.53c4.68-3.84 9.45-7.56 14.31-11.17 4.86-3.61 9.81-7.09 14.84-10.45 5.03-3.36 10.14-6.6 15.34-9.71 5.19-3.11 10.46-6.09 15.8-8.95a372.338 372.338 0 0 1 32.82-15.52 369.697 369.697 0 0 1 34.18-12.22c5.79-1.76 11.62-3.37 17.5-4.84 5.87-1.47 11.78-2.8 17.71-3.98 5.94-1.18 11.9-2.22 17.89-3.1 5.99-.89 11.99-1.63 18.02-2.22 6.02-.59 12.06-1.04 18.1-1.34a366.116 366.116 0 0 1 36.3 0c6.05.3 12.08.74 18.1 1.34 6.02.59 12.03 1.33 18.02 2.22 5.99.89 11.95 1.92 17.89 3.1 5.94 1.18 11.84 2.51 17.71 3.98 5.87 1.47 11.7 3.08 17.5 4.84a386.08 386.08 0 0 1 17.24 5.69c5.7 2.04 11.35 4.22 16.94 6.53 5.59 2.32 11.12 4.77 16.6 7.36 5.47 2.59 10.88 5.31 16.22 8.16 5.34 2.85 10.6 5.84 15.8 8.95 5.19 3.11 10.3 6.35 15.34 9.71 5.03 3.36 9.98 6.85 14.84 10.45 4.86 3.61 9.63 7.33 14.31 11.17s9.26 7.79 13.75 11.86c4.49 4.07 8.87 8.24 13.15 12.52 4.28 4.28 8.45 8.66 12.51 13.15 4.07 4.48 8.02 9.07 11.86 13.75s7.56 9.45 11.17 14.31c3.61 4.86 7.09 9.81 10.46 14.84 3.36 5.03 6.6 10.14 9.71 15.34 3.12 5.19 6.1 10.46 8.95 15.8 2.85 5.34 5.57 10.74 8.16 16.22s5.04 11 7.35 16.6 4.5 11.24 6.54 16.94c2.04 5.7 3.94 11.45 5.69 17.24 1.76 5.79 3.37 11.62 4.84 17.5 1.47 5.87 2.8 11.78 3.98 17.71a375.495 375.495 0 0 1 5.33 35.91c.59 6.02 1.04 12.06 1.33 18.1a369.143 369.143 0 0 1-2.92 67.98c-2.25 16.53-5.6 32.84-10.06 48.92a370.138 370.138 0 0 1-16.55 47.12 369.289 369.289 0 0 1-22.75 44.46l131.16 131.16c14.44 14.44 14.44 37.86 0 52.3l-26.15 26.15c-14.44 14.44-37.87 14.44-52.31 0L713.91 767.04zm12.86-276.15c0-71.49-25.28-132.52-75.83-183.07-50.55-50.55-111.58-75.83-183.07-75.83s-132.52 25.28-183.07 75.83-75.83 111.58-75.83 183.07 25.28 132.52 75.83 183.07 111.58 75.83 183.07 75.83 132.52-25.28 183.07-75.83c50.55-50.55 75.83-111.57 75.83-183.07z"/></svg>