<svg xmlns="http://www.w3.org/2000/svg" viewBox="0 0 1024 1024"><path fill="#4E5969" d="m855.77 286.93-320.42-185a46.259 46.259 0 0 0-46.25 0l-320.42 185a46.241 46.241 0 0 0-23.12 40.05v369.99c0 16.52 8.82 31.79 23.12 40.05l320.42 185a46.259 46.259 0 0 0 46.25 0l320.42-185a46.241 46.241 0 0 0 23.12-40.05V326.98c0-16.52-8.81-31.79-23.12-40.05zm-343.55-91.54L786.4 353.68v316.59L512.22 828.56 238.05 670.27V353.68l274.17-158.29z"/><path fill="#4E5969" d="M610.33 610.09c27.09-27.09 40.64-59.79 40.64-98.11s-13.55-71.02-40.64-98.11c-27.09-27.09-59.8-40.64-98.11-40.64s-71.02 13.55-98.11 40.64c-27.09 27.09-40.64 59.79-40.64 98.11s13.55 71.02 40.64 98.11c27.09 27.09 59.8 40.64 98.11 40.64s71.02-13.55 98.11-40.64zm-65.4-130.82c9.03 9.03 13.55 19.93 13.55 32.7 0 12.77-4.52 23.67-13.55 32.7-9.03 9.03-19.93 13.55-32.7 13.55s-23.67-4.52-32.7-13.55c-9.03-9.03-13.55-19.93-13.55-32.7 0-12.77 4.52-23.67 13.55-32.7 9.03-9.03 19.93-13.55 32.7-13.55s23.66 4.52 32.7 13.55z"/></svg>