<svg xmlns="http://www.w3.org/2000/svg" viewBox="0 0 1024 1024"><path fill="#00B457" d="M510.78 65.22c247.18 0 447.56 200.38 447.56 447.56S757.96 960.34 510.78 960.34 63.22 759.96 63.22 512.78 263.6 65.22 510.78 65.22z"/><path fill="#FFF" d="m663.223 341.586 24.49 20.55c13.535 11.344 15.299 31.505 3.947 45.033 0 0-.006.008-.014.001L477.844 661.83c-11.353 13.514-31.521 15.271-45.048 3.934l-48.981-41.1 234.36-279.143c11.36-13.508 31.52-15.272 45.048-3.935z"/><path fill="#FFF" d="m276.422 489.026 21.452-23.826c11.63-12.916 31.44-14.173 44.609-2.84l150.366 129.416-40.91 49.23c-11.283 13.578-31.437 15.442-45.021 4.152-.17-.14-.34-.28-.497-.42L279.248 534.577c-13.344-11.558-14.792-31.754-3.234-45.098l.408-.453z"/></svg>