<svg xmlns="http://www.w3.org/2000/svg" viewBox="0 0 1024 1024"><path fill="#F4FEF2" d="M512.14 64.22c247.46 0 448.07 200.61 448.07 448.07 0 247.46-200.61 448.07-448.07 448.07-247.46 0-448.07-200.61-448.07-448.07.01-247.46 200.61-448.07 448.07-448.07z"/><path fill="#00B457" d="m668.51 366.859 24.514 20.57c13.55 11.356 15.309 31.538 3.944 45.082 0 0-.006.007-.014.001l-214.046 254.95c-11.366 13.53-31.554 15.296-45.09 3.938l-49.035-41.144 234.623-279.458c11.38-13.53 31.562-15.29 45.105-3.94z"/><path fill="#00B457" d="m306.825 536.016 21.472-23.847c11.643-12.931 31.481-14.19 44.666-2.844L523.5 638.895l-40.957 49.283c-11.297 13.592-31.478 15.457-45.07 4.16-.17-.14-.341-.279-.497-.42L309.662 581.632c-13.36-11.571-14.808-31.782-3.237-45.14.126-.17.266-.326.4-.475z"/></svg>