<svg xmlns="http://www.w3.org/2000/svg" viewBox="0 0 1024 1024"><path fill="#0062FF" d="M472.44 836.01c0 22.4 18.16 40.55 40.55 40.55 22.4 0 40.55-18.16 40.55-40.55V673.8h-81.1v162.21z"/><path fill="#4E5969" d="M660.11 619.25c78.93-54.96 130.58-146.26 130.58-249.59 0-167.97-136.47-304.14-304.81-304.14S181.07 201.69 181.07 369.66c0 112.56 61.29 210.85 152.38 263.44-109.95 52.31-194.19 151.5-224.77 274.23-5.42 21.74 7.85 43.74 29.64 49.14 21.78 5.4 43.83-7.84 49.25-29.57 36.8-147.71 170.37-253.1 325.32-253.1 155.5 0 289.06 105.18 325.51 253 5.36 21.75 27.38 35.04 49.17 29.69 21.8-5.35 35.12-27.32 29.75-49.06-33.23-134.79-131.26-241.01-257.21-288.18zM485.88 592.7c-123.45 0-223.53-99.85-223.53-223.04 0-123.18 100.08-223.04 223.53-223.04s223.53 99.86 223.53 223.04c0 123.19-100.07 223.04-223.53 223.04z"/></svg>