<svg xmlns="http://www.w3.org/2000/svg" viewBox="0 0 1024 1024"><path fill="#FFF9F4" d="M511.2 959.56c246.3 0 445.97-199.67 445.97-445.97 0-246.3-199.67-445.97-445.97-445.97-246.3 0-445.97 199.67-445.97 445.97 0 246.3 199.67 445.97 445.97 445.97z"/><path fill="#FF9F43" d="M543.29 633.76c13.68 0 24.78 11.09 24.78 24.78v64.42c0 13.68-11.09 24.78-24.78 24.78h-64.42c-13.68 0-24.78-11.09-24.78-24.78v-64.42c0-13.68 11.09-24.78 24.78-24.78h64.42zm0-363.89c13.68 0 24.78 11.09 24.78 24.78V555.3c0 13.68-11.09 24.78-24.78 24.78h-64.42c-13.68 0-24.78-11.09-24.78-24.78V294.65c0-13.68 11.09-24.78 24.78-24.78h64.42z"/></svg>