<svg xmlns="http://www.w3.org/2000/svg" viewBox="0 0 1024 1024"><path fill="#FF9F43" d="M512 960a448 448 0 1 0 0-896 448 448 0 0 0 0 896z"/><path fill="#FFF" d="M544.256 632.704c13.696 0 24.832 11.136 24.832 24.96v64.64a24.896 24.896 0 0 1-24.832 24.96h-64.768a24.896 24.896 0 0 1-24.832-24.96v-64.64c0-13.824 11.136-24.96 24.832-24.96h64.768zm0-365.504c13.696 0 24.832 11.136 24.832 24.832V553.92a24.896 24.896 0 0 1-24.832 24.896h-64.768a24.896 24.896 0 0 1-24.832-24.96v-261.76c0-13.76 11.136-24.96 24.832-24.96h64.768z"/></svg>